%TF.GenerationSoftware,KiCad,Pcbnew,6.0.4-6f826c9f35~116~ubuntu21.10.1*%
%TF.CreationDate,2022-04-19T01:50:58-04:00*%
%TF.ProjectId,hotwire-lite,686f7477-6972-4652-9d6c-6974652e6b69,rev?*%
%TF.SameCoordinates,Original*%
%TF.FileFunction,Soldermask,Bot*%
%TF.FilePolarity,Negative*%
%FSLAX46Y46*%
G04 Gerber Fmt 4.6, Leading zero omitted, Abs format (unit mm)*
G04 Created by KiCad (PCBNEW 6.0.4-6f826c9f35~116~ubuntu21.10.1) date 2022-04-19 01:50:58*
%MOMM*%
%LPD*%
G01*
G04 APERTURE LIST*
%ADD10C,0.250000*%
%ADD11O,1.500000X2.000000*%
%ADD12C,2.000000*%
G04 APERTURE END LIST*
D10*
X116745833Y-107147380D02*
X116745833Y-106623571D01*
X116793452Y-106528333D01*
X116888690Y-106480714D01*
X117079166Y-106480714D01*
X117174404Y-106528333D01*
X116745833Y-107099761D02*
X116841071Y-107147380D01*
X117079166Y-107147380D01*
X117174404Y-107099761D01*
X117222023Y-107004523D01*
X117222023Y-106909285D01*
X117174404Y-106814047D01*
X117079166Y-106766428D01*
X116841071Y-106766428D01*
X116745833Y-106718809D01*
X116269642Y-106480714D02*
X116269642Y-107480714D01*
X116269642Y-106528333D02*
X116174404Y-106480714D01*
X115983928Y-106480714D01*
X115888690Y-106528333D01*
X115841071Y-106575952D01*
X115793452Y-106671190D01*
X115793452Y-106956904D01*
X115841071Y-107052142D01*
X115888690Y-107099761D01*
X115983928Y-107147380D01*
X116174404Y-107147380D01*
X116269642Y-107099761D01*
X115364880Y-107147380D02*
X115364880Y-106480714D01*
X115364880Y-106671190D02*
X115317261Y-106575952D01*
X115269642Y-106528333D01*
X115174404Y-106480714D01*
X115079166Y-106480714D01*
X114745833Y-107147380D02*
X114745833Y-106480714D01*
X114745833Y-106147380D02*
X114793452Y-106195000D01*
X114745833Y-106242619D01*
X114698214Y-106195000D01*
X114745833Y-106147380D01*
X114745833Y-106242619D01*
X114126785Y-107147380D02*
X114222023Y-107099761D01*
X114269642Y-107004523D01*
X114269642Y-106147380D01*
X113031547Y-106242619D02*
X112983928Y-106195000D01*
X112888690Y-106147380D01*
X112650595Y-106147380D01*
X112555357Y-106195000D01*
X112507738Y-106242619D01*
X112460119Y-106337857D01*
X112460119Y-106433095D01*
X112507738Y-106575952D01*
X113079166Y-107147380D01*
X112460119Y-107147380D01*
X111841071Y-106147380D02*
X111745833Y-106147380D01*
X111650595Y-106195000D01*
X111602976Y-106242619D01*
X111555357Y-106337857D01*
X111507738Y-106528333D01*
X111507738Y-106766428D01*
X111555357Y-106956904D01*
X111602976Y-107052142D01*
X111650595Y-107099761D01*
X111745833Y-107147380D01*
X111841071Y-107147380D01*
X111936309Y-107099761D01*
X111983928Y-107052142D01*
X112031547Y-106956904D01*
X112079166Y-106766428D01*
X112079166Y-106528333D01*
X112031547Y-106337857D01*
X111983928Y-106242619D01*
X111936309Y-106195000D01*
X111841071Y-106147380D01*
X111126785Y-106242619D02*
X111079166Y-106195000D01*
X110983928Y-106147380D01*
X110745833Y-106147380D01*
X110650595Y-106195000D01*
X110602976Y-106242619D01*
X110555357Y-106337857D01*
X110555357Y-106433095D01*
X110602976Y-106575952D01*
X111174404Y-107147380D01*
X110555357Y-107147380D01*
X110174404Y-106242619D02*
X110126785Y-106195000D01*
X110031547Y-106147380D01*
X109793452Y-106147380D01*
X109698214Y-106195000D01*
X109650595Y-106242619D01*
X109602976Y-106337857D01*
X109602976Y-106433095D01*
X109650595Y-106575952D01*
X110222023Y-107147380D01*
X109602976Y-107147380D01*
X112507738Y-108757380D02*
X112507738Y-108090714D01*
X112507738Y-108281190D02*
X112460119Y-108185952D01*
X112412500Y-108138333D01*
X112317261Y-108090714D01*
X112222023Y-108090714D01*
X111888690Y-108757380D02*
X111888690Y-108090714D01*
X111888690Y-108185952D02*
X111841071Y-108138333D01*
X111745833Y-108090714D01*
X111602976Y-108090714D01*
X111507738Y-108138333D01*
X111460119Y-108233571D01*
X111460119Y-108757380D01*
X111460119Y-108233571D02*
X111412500Y-108138333D01*
X111317261Y-108090714D01*
X111174404Y-108090714D01*
X111079166Y-108138333D01*
X111031547Y-108233571D01*
X111031547Y-108757380D01*
X110412500Y-108757380D02*
X110507738Y-108709761D01*
X110555357Y-108614523D01*
X110555357Y-107757380D01*
X109650595Y-108709761D02*
X109745833Y-108757380D01*
X109936309Y-108757380D01*
X110031547Y-108709761D01*
X110079166Y-108614523D01*
X110079166Y-108233571D01*
X110031547Y-108138333D01*
X109936309Y-108090714D01*
X109745833Y-108090714D01*
X109650595Y-108138333D01*
X109602976Y-108233571D01*
X109602976Y-108328809D01*
X110079166Y-108424047D01*
D11*
%TO.C,J1*%
X113500000Y-116700000D03*
D12*
X117900000Y-116700000D03*
%TD*%
M02*
