M48
; DRILL file {KiCad 6.0.4-6f826c9f35~116~ubuntu21.10.1} date Tue 19 Apr 2022 01:51:08 AM EDT
; FORMAT={-:-/ absolute / inch / decimal}
; #@! TF.CreationDate,2022-04-19T01:51:08-04:00
; #@! TF.GenerationSoftware,Kicad,Pcbnew,6.0.4-6f826c9f35~116~ubuntu21.10.1
; #@! TF.FileFunction,Plated,1,2,PTH
FMAT,2
INCH
; #@! TA.AperFunction,Plated,PTH,ViaDrill
T1C0.0157
; #@! TA.AperFunction,Plated,PTH,ViaDrill
T2C0.0295
%
G90
G05
T1
X4.7657Y-4.3228
X4.8757Y-4.2798
X4.8799Y-4.1614
X4.9193Y-4.8622
X4.937Y-4.5669
X5.0728Y-4.3663
X5.1555Y-4.3386
X5.19Y-4.5568
X5.1949Y-4.3425
X5.2933Y-4.7835
X5.4783Y-4.7835
X5.4823Y-4.1634
X5.561Y-4.1634
X5.6004Y-4.2028
X5.6004Y-4.2815
X5.6398Y-4.1634
X5.6398Y-4.2421
X5.6398Y-4.3209
X5.6791Y-4.2028
X5.6791Y-4.2815
X5.7185Y-4.1634
X5.7185Y-4.2421
X5.7283Y-4.3209
X5.7579Y-4.2028
X5.7579Y-4.2815
T2
X4.5472Y-4.811
X4.7835Y-4.811
T0
M30
