%TF.GenerationSoftware,KiCad,Pcbnew,6.0.4-6f826c9f35~116~ubuntu21.10.1*%
%TF.CreationDate,2022-04-19T01:50:56-04:00*%
%TF.ProjectId,hotwire-lite,686f7477-6972-4652-9d6c-6974652e6b69,rev?*%
%TF.SameCoordinates,Original*%
%TF.FileFunction,Soldermask,Top*%
%TF.FilePolarity,Negative*%
%FSLAX46Y46*%
G04 Gerber Fmt 4.6, Leading zero omitted, Abs format (unit mm)*
G04 Created by KiCad (PCBNEW 6.0.4-6f826c9f35~116~ubuntu21.10.1) date 2022-04-19 01:50:56*
%MOMM*%
%LPD*%
G01*
G04 APERTURE LIST*
G04 Aperture macros list*
%AMRoundRect*
0 Rectangle with rounded corners*
0 $1 Rounding radius*
0 $2 $3 $4 $5 $6 $7 $8 $9 X,Y pos of 4 corners*
0 Add a 4 corners polygon primitive as box body*
4,1,4,$2,$3,$4,$5,$6,$7,$8,$9,$2,$3,0*
0 Add four circle primitives for the rounded corners*
1,1,$1+$1,$2,$3*
1,1,$1+$1,$4,$5*
1,1,$1+$1,$6,$7*
1,1,$1+$1,$8,$9*
0 Add four rect primitives between the rounded corners*
20,1,$1+$1,$2,$3,$4,$5,0*
20,1,$1+$1,$4,$5,$6,$7,0*
20,1,$1+$1,$6,$7,$8,$9,0*
20,1,$1+$1,$8,$9,$2,$3,0*%
%AMFreePoly0*
4,1,21,1.372500,0.787500,0.862500,0.787500,0.862500,0.532500,1.372500,0.532500,1.372500,0.127500,0.862500,0.127500,0.862500,-0.127500,1.372500,-0.127500,1.372500,-0.532500,0.862500,-0.532500,0.862500,-0.787500,1.372500,-0.787500,1.372500,-1.195000,0.612500,-1.195000,0.612500,-1.117500,-0.862500,-1.117500,-0.862500,1.117500,0.612500,1.117500,0.612500,1.195000,1.372500,1.195000,
1.372500,0.787500,1.372500,0.787500,$1*%
G04 Aperture macros list end*
%ADD10RoundRect,0.150000X-0.512500X-0.150000X0.512500X-0.150000X0.512500X0.150000X-0.512500X0.150000X0*%
%ADD11RoundRect,0.150000X-0.150000X0.825000X-0.150000X-0.825000X0.150000X-0.825000X0.150000X0.825000X0*%
%ADD12RoundRect,0.150000X0.512500X0.150000X-0.512500X0.150000X-0.512500X-0.150000X0.512500X-0.150000X0*%
%ADD13C,1.000000*%
%ADD14R,1.550000X1.300000*%
%ADD15RoundRect,0.250000X-0.362500X-1.425000X0.362500X-1.425000X0.362500X1.425000X-0.362500X1.425000X0*%
%ADD16RoundRect,0.200000X-0.200000X-0.275000X0.200000X-0.275000X0.200000X0.275000X-0.200000X0.275000X0*%
%ADD17RoundRect,0.200000X0.275000X-0.200000X0.275000X0.200000X-0.275000X0.200000X-0.275000X-0.200000X0*%
%ADD18RoundRect,0.200000X-0.275000X0.200000X-0.275000X-0.200000X0.275000X-0.200000X0.275000X0.200000X0*%
%ADD19R,0.405000X0.990000*%
%ADD20FreePoly0,270.000000*%
%ADD21RoundRect,0.500000X2.000000X-0.750000X2.000000X0.750000X-2.000000X0.750000X-2.000000X-0.750000X0*%
%ADD22R,2.000000X3.000000*%
%ADD23O,1.500000X2.000000*%
%ADD24C,2.000000*%
%ADD25RoundRect,0.243750X0.456250X-0.243750X0.456250X0.243750X-0.456250X0.243750X-0.456250X-0.243750X0*%
%ADD26RoundRect,0.225000X0.250000X-0.225000X0.250000X0.225000X-0.250000X0.225000X-0.250000X-0.225000X0*%
%ADD27RoundRect,0.225000X-0.225000X-0.250000X0.225000X-0.250000X0.225000X0.250000X-0.225000X0.250000X0*%
G04 APERTURE END LIST*
D10*
%TO.C,U3*%
X126712500Y-114550000D03*
X126712500Y-115500000D03*
X126712500Y-116450000D03*
X128987500Y-116450000D03*
X128987500Y-115500000D03*
X128987500Y-114550000D03*
%TD*%
D11*
%TO.C,U2*%
X129355000Y-107525000D03*
X128085000Y-107525000D03*
X126815000Y-107525000D03*
X125545000Y-107525000D03*
X125545000Y-112475000D03*
X126815000Y-112475000D03*
X128085000Y-112475000D03*
X129355000Y-112475000D03*
%TD*%
D12*
%TO.C,U1*%
X119587500Y-108350000D03*
X119587500Y-107400000D03*
X119587500Y-106450000D03*
X117312500Y-106450000D03*
X117312500Y-108350000D03*
%TD*%
D13*
%TO.C,TP3*%
X133550000Y-109300000D03*
%TD*%
%TO.C,TP2*%
X135650000Y-109300000D03*
%TD*%
%TO.C,TP1*%
X124650000Y-114800000D03*
%TD*%
D14*
%TO.C,SW1*%
X132820000Y-116950000D03*
X140780000Y-116950000D03*
X132820000Y-121450000D03*
X140780000Y-121450000D03*
%TD*%
D15*
%TO.C,R6*%
X124887500Y-119225000D03*
X130812500Y-119225000D03*
%TD*%
D16*
%TO.C,R5*%
X135175000Y-106400000D03*
X136825000Y-106400000D03*
%TD*%
D17*
%TO.C,R4*%
X131750000Y-113125000D03*
X131750000Y-111475000D03*
%TD*%
D18*
%TO.C,R3*%
X126300000Y-121875000D03*
X126300000Y-123525000D03*
%TD*%
D17*
%TO.C,R2*%
X127850000Y-123525000D03*
X127850000Y-121875000D03*
%TD*%
D18*
%TO.C,R1*%
X129400000Y-121875000D03*
X129400000Y-123525000D03*
%TD*%
D19*
%TO.C,Q1*%
X140290000Y-107265000D03*
X139630000Y-107265000D03*
X138970000Y-107265000D03*
X138310000Y-107265000D03*
D20*
X139300000Y-109257500D03*
%TD*%
D21*
%TO.C,J3*%
X140500000Y-112700000D03*
%TD*%
%TO.C,J2*%
X144600000Y-119200000D03*
%TD*%
D22*
%TO.C,J1*%
X113400000Y-122200000D03*
X119400000Y-122200000D03*
X119400000Y-111200000D03*
X113400000Y-111200000D03*
D23*
X113500000Y-116700000D03*
D24*
X117900000Y-116700000D03*
%TD*%
D25*
%TO.C,D1*%
X133550000Y-113037500D03*
X133550000Y-111162500D03*
%TD*%
D26*
%TO.C,C4*%
X130700000Y-116125000D03*
X130700000Y-114575000D03*
%TD*%
%TO.C,C3*%
X130950000Y-109075000D03*
X130950000Y-107525000D03*
%TD*%
D27*
%TO.C,C2*%
X121275000Y-105800000D03*
X122825000Y-105800000D03*
%TD*%
%TO.C,C1*%
X121275000Y-108400000D03*
X122825000Y-108400000D03*
%TD*%
M02*
