%TF.GenerationSoftware,KiCad,Pcbnew,6.0.4-6f826c9f35~116~ubuntu21.10.1*%
%TF.CreationDate,2022-04-19T01:50:52-04:00*%
%TF.ProjectId,hotwire-lite,686f7477-6972-4652-9d6c-6974652e6b69,rev?*%
%TF.SameCoordinates,Original*%
%TF.FileFunction,Legend,Top*%
%TF.FilePolarity,Positive*%
%FSLAX46Y46*%
G04 Gerber Fmt 4.6, Leading zero omitted, Abs format (unit mm)*
G04 Created by KiCad (PCBNEW 6.0.4-6f826c9f35~116~ubuntu21.10.1) date 2022-04-19 01:50:52*
%MOMM*%
%LPD*%
G01*
G04 APERTURE LIST*
%ADD10C,0.250000*%
%ADD11C,0.300000*%
%ADD12C,0.275000*%
%ADD13C,0.120000*%
G04 APERTURE END LIST*
D10*
X124014285Y-115852380D02*
X124014285Y-116661904D01*
X124061904Y-116757142D01*
X124109523Y-116804761D01*
X124204761Y-116852380D01*
X124395238Y-116852380D01*
X124490476Y-116804761D01*
X124538095Y-116757142D01*
X124585714Y-116661904D01*
X124585714Y-115852380D01*
X135223809Y-108052380D02*
X135223809Y-107385714D01*
X135223809Y-107576190D02*
X135271428Y-107480952D01*
X135319047Y-107433333D01*
X135414285Y-107385714D01*
X135509523Y-107385714D01*
X135747619Y-108052380D02*
X136271428Y-107385714D01*
X135747619Y-107385714D02*
X136271428Y-108052380D01*
X133004761Y-107385714D02*
X133385714Y-107385714D01*
X133147619Y-107052380D02*
X133147619Y-107909523D01*
X133195238Y-108004761D01*
X133290476Y-108052380D01*
X133385714Y-108052380D01*
X133623809Y-108052380D02*
X134147619Y-107385714D01*
X133623809Y-107385714D02*
X134147619Y-108052380D01*
D11*
X109535714Y-107928571D02*
X109535714Y-106428571D01*
X109535714Y-107142857D02*
X110392857Y-107142857D01*
X110392857Y-107928571D02*
X110392857Y-106428571D01*
X111392857Y-106428571D02*
X111678571Y-106428571D01*
X111821428Y-106500000D01*
X111964285Y-106642857D01*
X112035714Y-106928571D01*
X112035714Y-107428571D01*
X111964285Y-107714285D01*
X111821428Y-107857142D01*
X111678571Y-107928571D01*
X111392857Y-107928571D01*
X111250000Y-107857142D01*
X111107142Y-107714285D01*
X111035714Y-107428571D01*
X111035714Y-106928571D01*
X111107142Y-106642857D01*
X111250000Y-106500000D01*
X111392857Y-106428571D01*
X112464285Y-106428571D02*
X113321428Y-106428571D01*
X112892857Y-107928571D02*
X112892857Y-106428571D01*
X114964285Y-107785714D02*
X115035714Y-107857142D01*
X114964285Y-107928571D01*
X114892857Y-107857142D01*
X114964285Y-107785714D01*
X114964285Y-107928571D01*
X114964285Y-107000000D02*
X115035714Y-107071428D01*
X114964285Y-107142857D01*
X114892857Y-107071428D01*
X114964285Y-107000000D01*
X114964285Y-107142857D01*
X115535714Y-108500000D02*
X115607142Y-108428571D01*
X115750000Y-108214285D01*
X115821428Y-108071428D01*
X115892857Y-107857142D01*
X115964285Y-107500000D01*
X115964285Y-107214285D01*
X115892857Y-106857142D01*
X115821428Y-106642857D01*
X115750000Y-106500000D01*
X115607142Y-106285714D01*
X115535714Y-106214285D01*
D12*
X133670476Y-123321428D02*
X134083809Y-123321428D01*
X134260952Y-123897619D02*
X133670476Y-123897619D01*
X133670476Y-122797619D01*
X134260952Y-122797619D01*
X134792380Y-123897619D02*
X134792380Y-122797619D01*
X135500952Y-123897619D01*
X135500952Y-122797619D01*
X136032380Y-123583333D02*
X136622857Y-123583333D01*
X135914285Y-123897619D02*
X136327619Y-122797619D01*
X136740952Y-123897619D01*
X137567619Y-123321428D02*
X137744761Y-123373809D01*
X137803809Y-123426190D01*
X137862857Y-123530952D01*
X137862857Y-123688095D01*
X137803809Y-123792857D01*
X137744761Y-123845238D01*
X137626666Y-123897619D01*
X137154285Y-123897619D01*
X137154285Y-122797619D01*
X137567619Y-122797619D01*
X137685714Y-122850000D01*
X137744761Y-122902380D01*
X137803809Y-123007142D01*
X137803809Y-123111904D01*
X137744761Y-123216666D01*
X137685714Y-123269047D01*
X137567619Y-123321428D01*
X137154285Y-123321428D01*
X138984761Y-123897619D02*
X138394285Y-123897619D01*
X138394285Y-122797619D01*
X139398095Y-123321428D02*
X139811428Y-123321428D01*
X139988571Y-123897619D02*
X139398095Y-123897619D01*
X139398095Y-122797619D01*
X139988571Y-122797619D01*
D11*
X135221428Y-110800000D02*
X136721428Y-110800000D01*
X136721428Y-111371428D01*
X136650000Y-111514285D01*
X136578571Y-111585714D01*
X136435714Y-111657142D01*
X136221428Y-111657142D01*
X136078571Y-111585714D01*
X136007142Y-111514285D01*
X135935714Y-111371428D01*
X135935714Y-110800000D01*
X136721428Y-112157142D02*
X135221428Y-112514285D01*
X136292857Y-112800000D01*
X135221428Y-113085714D01*
X136721428Y-113442857D01*
X135221428Y-114871428D02*
X135935714Y-114371428D01*
X135221428Y-114014285D02*
X136721428Y-114014285D01*
X136721428Y-114585714D01*
X136650000Y-114728571D01*
X136578571Y-114800000D01*
X136435714Y-114871428D01*
X136221428Y-114871428D01*
X136078571Y-114800000D01*
X136007142Y-114728571D01*
X135935714Y-114585714D01*
X135935714Y-114014285D01*
D13*
%TO.C,U3*%
X127850000Y-117060000D02*
X127050000Y-117060000D01*
X127850000Y-113940000D02*
X128650000Y-113940000D01*
X127850000Y-117060000D02*
X128650000Y-117060000D01*
X127850000Y-113940000D02*
X126050000Y-113940000D01*
%TO.C,U2*%
X130010000Y-110000000D02*
X130010000Y-111950000D01*
X124890000Y-110000000D02*
X124890000Y-111950000D01*
X130010000Y-110000000D02*
X130010000Y-106550000D01*
X124890000Y-110000000D02*
X124890000Y-108050000D01*
%TO.C,U1*%
X118450000Y-105840000D02*
X119250000Y-105840000D01*
X118450000Y-108960000D02*
X120250000Y-108960000D01*
X118450000Y-108960000D02*
X117650000Y-108960000D01*
X118450000Y-105840000D02*
X117650000Y-105840000D01*
%TO.C,TP3*%
X134250000Y-109300000D02*
G75*
G03*
X134250000Y-109300000I-700000J0D01*
G01*
%TO.C,TP2*%
X136350000Y-109300000D02*
G75*
G03*
X136350000Y-109300000I-700000J0D01*
G01*
%TO.C,TP1*%
X125350000Y-114800000D02*
G75*
G03*
X125350000Y-114800000I-700000J0D01*
G01*
%TO.C,SW1*%
X133570000Y-122430000D02*
X140030000Y-122430000D01*
X133570000Y-115970000D02*
X140030000Y-115970000D01*
X140030000Y-122430000D02*
X140030000Y-122400000D01*
X140030000Y-117900000D02*
X140030000Y-120500000D01*
X140030000Y-115970000D02*
X140030000Y-116000000D01*
X133570000Y-116000000D02*
X133570000Y-115970000D01*
X133570000Y-122430000D02*
X133570000Y-122400000D01*
X133570000Y-117900000D02*
X133570000Y-120500000D01*
%TO.C,R6*%
X125672936Y-117515000D02*
X130027064Y-117515000D01*
X125672936Y-120935000D02*
X130027064Y-120935000D01*
%TO.C,R5*%
X135762742Y-106922500D02*
X136237258Y-106922500D01*
X135762742Y-105877500D02*
X136237258Y-105877500D01*
%TO.C,R4*%
X132272500Y-112537258D02*
X132272500Y-112062742D01*
X131227500Y-112537258D02*
X131227500Y-112062742D01*
%TO.C,R3*%
X125777500Y-122462742D02*
X125777500Y-122937258D01*
X126822500Y-122462742D02*
X126822500Y-122937258D01*
%TO.C,R2*%
X128372500Y-122937258D02*
X128372500Y-122462742D01*
X127327500Y-122937258D02*
X127327500Y-122462742D01*
%TO.C,R1*%
X128877500Y-122462742D02*
X128877500Y-122937258D01*
X129922500Y-122462742D02*
X129922500Y-122937258D01*
%TO.C,Q1*%
X138000000Y-110335000D02*
X137665000Y-110335000D01*
X140935000Y-110335000D02*
X140600000Y-110335000D01*
X137665000Y-107065000D02*
X137665000Y-110335000D01*
X138000000Y-107065000D02*
X137665000Y-107065000D01*
X140935000Y-106830000D02*
X140935000Y-110335000D01*
%TO.C,J1*%
X116400000Y-119700000D02*
G75*
G03*
X116400000Y-113700000I0J3000000D01*
G01*
X108290000Y-121260000D02*
X111900000Y-121260000D01*
X113480000Y-109440000D02*
X112140000Y-109440000D01*
X114900000Y-121260000D02*
X117900000Y-121260000D01*
X123210000Y-121260000D02*
X123210000Y-112140000D01*
X108290000Y-112140000D02*
X111900000Y-112140000D01*
X111600000Y-119700000D02*
X116400000Y-119700000D01*
X120900000Y-112140000D02*
X123210000Y-112140000D01*
X111600000Y-113700000D02*
X116400000Y-113700000D01*
X108290000Y-121260000D02*
X108290000Y-112140000D01*
X114900000Y-112140000D02*
X117900000Y-112140000D01*
X120900000Y-121260000D02*
X123210000Y-121260000D01*
X112140000Y-109440000D02*
X112140000Y-111340000D01*
X111600000Y-121260000D02*
X111600000Y-112140000D01*
%TO.C,D1*%
X134510000Y-113785000D02*
X134510000Y-111100000D01*
X132590000Y-113785000D02*
X134510000Y-113785000D01*
X132590000Y-111100000D02*
X132590000Y-113785000D01*
%TO.C,C4*%
X131210000Y-115490580D02*
X131210000Y-115209420D01*
X130190000Y-115490580D02*
X130190000Y-115209420D01*
%TO.C,C3*%
X131460000Y-108440580D02*
X131460000Y-108159420D01*
X130440000Y-108440580D02*
X130440000Y-108159420D01*
%TO.C,C2*%
X121909420Y-106310000D02*
X122190580Y-106310000D01*
X121909420Y-105290000D02*
X122190580Y-105290000D01*
%TO.C,C1*%
X121909420Y-108910000D02*
X122190580Y-108910000D01*
X121909420Y-107890000D02*
X122190580Y-107890000D01*
%TD*%
M02*
