%TF.GenerationSoftware,KiCad,Pcbnew,5.99.0+really5.1.10+dfsg1-1*%
%TF.CreationDate,2022-02-08T15:36:29-05:00*%
%TF.ProjectId,hotwire-lite,686f7477-6972-4652-9d6c-6974652e6b69,rev?*%
%TF.SameCoordinates,Original*%
%TF.FileFunction,Copper,L2,Bot*%
%TF.FilePolarity,Positive*%
%FSLAX46Y46*%
G04 Gerber Fmt 4.6, Leading zero omitted, Abs format (unit mm)*
G04 Created by KiCad (PCBNEW 5.99.0+really5.1.10+dfsg1-1) date 2022-02-08 15:36:29*
%MOMM*%
%LPD*%
G01*
G04 APERTURE LIST*
%TA.AperFunction,ComponentPad*%
%ADD10O,1.700000X1.700000*%
%TD*%
%TA.AperFunction,ComponentPad*%
%ADD11R,1.700000X1.700000*%
%TD*%
%TA.AperFunction,ComponentPad*%
%ADD12R,2.400000X2.400000*%
%TD*%
%TA.AperFunction,ComponentPad*%
%ADD13C,2.400000*%
%TD*%
%TA.AperFunction,ViaPad*%
%ADD14C,0.800000*%
%TD*%
%TA.AperFunction,Conductor*%
%ADD15C,0.400000*%
%TD*%
%TA.AperFunction,Conductor*%
%ADD16C,0.250000*%
%TD*%
%TA.AperFunction,Conductor*%
%ADD17C,0.254000*%
%TD*%
%TA.AperFunction,Conductor*%
%ADD18C,0.100000*%
%TD*%
G04 APERTURE END LIST*
D10*
%TO.P,J3,4*%
%TO.N,/UPDI*%
X122000000Y-68620000D03*
%TO.P,J3,3*%
%TO.N,/rx_button*%
X122000000Y-66080000D03*
%TO.P,J3,2*%
%TO.N,/tx_led*%
X122000000Y-63540000D03*
D11*
%TO.P,J3,1*%
%TO.N,GNDREF*%
X122000000Y-61000000D03*
%TD*%
D10*
%TO.P,J4,2*%
%TO.N,/output_return*%
X122000000Y-74460000D03*
D11*
%TO.P,J4,1*%
%TO.N,/shunt_low*%
X122000000Y-77000000D03*
%TD*%
D12*
%TO.P,J2,1*%
%TO.N,GNDREF*%
X70000000Y-63750000D03*
D13*
%TO.P,J2,2*%
%TO.N,/vin*%
X70000000Y-67250000D03*
%TD*%
D14*
%TO.N,GNDREF*%
X90200000Y-72000000D03*
X95250000Y-72750000D03*
X99750000Y-71000000D03*
X99000000Y-63000000D03*
X112750000Y-88750000D03*
X120750000Y-88750000D03*
X76000000Y-61000000D03*
X81000000Y-63500000D03*
X114500000Y-66000000D03*
X116000000Y-66000000D03*
X114500000Y-67500000D03*
X116000000Y-67500000D03*
X116000000Y-69000000D03*
X77000000Y-83750000D03*
X79500000Y-86500000D03*
X113000000Y-66000000D03*
X113000000Y-67500000D03*
X113000000Y-69000000D03*
X111500000Y-69000000D03*
X110000000Y-69000000D03*
X110000000Y-67500000D03*
X110000000Y-66000000D03*
X111500000Y-66000000D03*
X111500000Y-67500000D03*
X94250000Y-68750000D03*
X90500000Y-69750000D03*
X92750000Y-69750000D03*
X90250000Y-74000000D03*
X95250000Y-74250000D03*
X96750000Y-74250000D03*
X96750000Y-72750000D03*
X89250000Y-70500000D03*
X88750000Y-74250000D03*
X99750000Y-74250000D03*
X98250000Y-67750000D03*
X98250000Y-72750000D03*
X98250000Y-74250000D03*
X99750000Y-72750000D03*
X98250000Y-69250000D03*
X99750000Y-69250000D03*
X114500000Y-69000000D03*
X74750000Y-70750000D03*
X86200000Y-70600000D03*
X87800000Y-69200000D03*
X86000000Y-68600000D03*
X87600000Y-67600000D03*
%TO.N,/vcc*%
X93000000Y-60750000D03*
X89000000Y-65750000D03*
X94750000Y-67500000D03*
%TO.N,/shunt_low*%
X82500000Y-77100000D03*
X82500000Y-73900000D03*
%TD*%
D15*
%TO.N,/vcc*%
X89750000Y-65750000D02*
X91500000Y-65750000D01*
X93000000Y-64250000D02*
X93000000Y-60750000D01*
X91500000Y-65750000D02*
X93000000Y-64250000D01*
X93000000Y-65750000D02*
X94750000Y-67500000D01*
X91500000Y-65750000D02*
X93000000Y-65750000D01*
X89000000Y-65750000D02*
X89750000Y-65750000D01*
D16*
%TO.N,/shunt_low*%
X82500000Y-77100000D02*
X82500000Y-73900000D01*
%TD*%
D17*
%TO.N,GNDREF*%
X124065424Y-59169580D02*
X124128356Y-59188580D01*
X124186405Y-59219445D01*
X124237343Y-59260989D01*
X124279248Y-59311644D01*
X124310515Y-59369471D01*
X124329956Y-59432272D01*
X124340000Y-59527835D01*
X124340001Y-89467711D01*
X124330420Y-89565424D01*
X124311420Y-89628357D01*
X124280554Y-89686406D01*
X124239011Y-89737343D01*
X124188356Y-89779248D01*
X124130529Y-89810515D01*
X124067728Y-89829956D01*
X123972165Y-89840000D01*
X66032279Y-89840000D01*
X65934576Y-89830420D01*
X65871643Y-89811420D01*
X65813594Y-89780554D01*
X65762657Y-89739011D01*
X65720752Y-89688356D01*
X65689485Y-89630529D01*
X65670044Y-89567728D01*
X65660000Y-89472165D01*
X65660000Y-80681964D01*
X69715000Y-80681964D01*
X69715000Y-81318037D01*
X69735040Y-81521507D01*
X69814236Y-81782581D01*
X69942843Y-82023188D01*
X70115920Y-82234081D01*
X70326813Y-82407157D01*
X70567420Y-82535764D01*
X70828494Y-82614960D01*
X71100000Y-82641701D01*
X71371507Y-82614960D01*
X71632581Y-82535764D01*
X71873188Y-82407157D01*
X72084081Y-82234081D01*
X72257157Y-82023188D01*
X72385764Y-81782580D01*
X72464960Y-81521506D01*
X72485000Y-81318036D01*
X72485000Y-80838967D01*
X73865000Y-80838967D01*
X73865000Y-81161033D01*
X73927832Y-81476912D01*
X74051082Y-81774463D01*
X74230013Y-82042252D01*
X74457748Y-82269987D01*
X74725537Y-82448918D01*
X75023088Y-82572168D01*
X75338967Y-82635000D01*
X75661033Y-82635000D01*
X75976912Y-82572168D01*
X76274463Y-82448918D01*
X76542252Y-82269987D01*
X76769987Y-82042252D01*
X76948918Y-81774463D01*
X77072168Y-81476912D01*
X77135000Y-81161033D01*
X77135000Y-80838967D01*
X77072168Y-80523088D01*
X76948918Y-80225537D01*
X76769987Y-79957748D01*
X76542252Y-79730013D01*
X76274463Y-79551082D01*
X75976912Y-79427832D01*
X75661033Y-79365000D01*
X75338967Y-79365000D01*
X75023088Y-79427832D01*
X74725537Y-79551082D01*
X74457748Y-79730013D01*
X74230013Y-79957748D01*
X74051082Y-80225537D01*
X73927832Y-80523088D01*
X73865000Y-80838967D01*
X72485000Y-80838967D01*
X72485000Y-80681963D01*
X72464960Y-80478493D01*
X72385764Y-80217419D01*
X72257157Y-79976812D01*
X72084080Y-79765919D01*
X71873187Y-79592843D01*
X71632580Y-79464236D01*
X71371506Y-79385040D01*
X71100000Y-79358299D01*
X70828493Y-79385040D01*
X70567419Y-79464236D01*
X70326812Y-79592843D01*
X70115919Y-79765920D01*
X69942843Y-79976813D01*
X69814236Y-80217420D01*
X69735040Y-80478494D01*
X69715000Y-80681964D01*
X65660000Y-80681964D01*
X65660000Y-73798061D01*
X81465000Y-73798061D01*
X81465000Y-74001939D01*
X81504774Y-74201898D01*
X81582795Y-74390256D01*
X81696063Y-74559774D01*
X81740001Y-74603712D01*
X81740000Y-76396289D01*
X81696063Y-76440226D01*
X81582795Y-76609744D01*
X81504774Y-76798102D01*
X81465000Y-76998061D01*
X81465000Y-77201939D01*
X81504774Y-77401898D01*
X81582795Y-77590256D01*
X81696063Y-77759774D01*
X81840226Y-77903937D01*
X82009744Y-78017205D01*
X82198102Y-78095226D01*
X82398061Y-78135000D01*
X82601939Y-78135000D01*
X82801898Y-78095226D01*
X82990256Y-78017205D01*
X83159774Y-77903937D01*
X83303937Y-77759774D01*
X83417205Y-77590256D01*
X83495226Y-77401898D01*
X83535000Y-77201939D01*
X83535000Y-76998061D01*
X83495226Y-76798102D01*
X83417205Y-76609744D01*
X83303937Y-76440226D01*
X83260000Y-76396289D01*
X83260000Y-76150000D01*
X120511928Y-76150000D01*
X120511928Y-77850000D01*
X120524188Y-77974482D01*
X120560498Y-78094180D01*
X120619463Y-78204494D01*
X120698815Y-78301185D01*
X120795506Y-78380537D01*
X120905820Y-78439502D01*
X121025518Y-78475812D01*
X121150000Y-78488072D01*
X122850000Y-78488072D01*
X122974482Y-78475812D01*
X123094180Y-78439502D01*
X123204494Y-78380537D01*
X123301185Y-78301185D01*
X123380537Y-78204494D01*
X123439502Y-78094180D01*
X123475812Y-77974482D01*
X123488072Y-77850000D01*
X123488072Y-76150000D01*
X123475812Y-76025518D01*
X123439502Y-75905820D01*
X123380537Y-75795506D01*
X123301185Y-75698815D01*
X123204494Y-75619463D01*
X123094180Y-75560498D01*
X123021620Y-75538487D01*
X123153475Y-75406632D01*
X123315990Y-75163411D01*
X123427932Y-74893158D01*
X123485000Y-74606260D01*
X123485000Y-74313740D01*
X123427932Y-74026842D01*
X123315990Y-73756589D01*
X123153475Y-73513368D01*
X122946632Y-73306525D01*
X122703411Y-73144010D01*
X122433158Y-73032068D01*
X122146260Y-72975000D01*
X121853740Y-72975000D01*
X121566842Y-73032068D01*
X121296589Y-73144010D01*
X121053368Y-73306525D01*
X120846525Y-73513368D01*
X120684010Y-73756589D01*
X120572068Y-74026842D01*
X120515000Y-74313740D01*
X120515000Y-74606260D01*
X120572068Y-74893158D01*
X120684010Y-75163411D01*
X120846525Y-75406632D01*
X120978380Y-75538487D01*
X120905820Y-75560498D01*
X120795506Y-75619463D01*
X120698815Y-75698815D01*
X120619463Y-75795506D01*
X120560498Y-75905820D01*
X120524188Y-76025518D01*
X120511928Y-76150000D01*
X83260000Y-76150000D01*
X83260000Y-74603711D01*
X83303937Y-74559774D01*
X83417205Y-74390256D01*
X83495226Y-74201898D01*
X83535000Y-74001939D01*
X83535000Y-73798061D01*
X83495226Y-73598102D01*
X83417205Y-73409744D01*
X83303937Y-73240226D01*
X83159774Y-73096063D01*
X82990256Y-72982795D01*
X82801898Y-72904774D01*
X82601939Y-72865000D01*
X82398061Y-72865000D01*
X82198102Y-72904774D01*
X82009744Y-72982795D01*
X81840226Y-73096063D01*
X81696063Y-73240226D01*
X81582795Y-73409744D01*
X81504774Y-73598102D01*
X81465000Y-73798061D01*
X65660000Y-73798061D01*
X65660000Y-64950000D01*
X68161928Y-64950000D01*
X68174188Y-65074482D01*
X68210498Y-65194180D01*
X68269463Y-65304494D01*
X68348815Y-65401185D01*
X68445506Y-65480537D01*
X68555820Y-65539502D01*
X68675518Y-65575812D01*
X68800000Y-65588072D01*
X69220574Y-65586659D01*
X69130801Y-65623844D01*
X68830256Y-65824662D01*
X68574662Y-66080256D01*
X68373844Y-66380801D01*
X68235518Y-66714750D01*
X68165000Y-67069268D01*
X68165000Y-67430732D01*
X68235518Y-67785250D01*
X68373844Y-68119199D01*
X68574662Y-68419744D01*
X68830256Y-68675338D01*
X69130801Y-68876156D01*
X69464750Y-69014482D01*
X69819268Y-69085000D01*
X70180732Y-69085000D01*
X70535250Y-69014482D01*
X70869199Y-68876156D01*
X71169744Y-68675338D01*
X71425338Y-68419744D01*
X71626156Y-68119199D01*
X71764482Y-67785250D01*
X71835000Y-67430732D01*
X71835000Y-67069268D01*
X71764482Y-66714750D01*
X71626156Y-66380801D01*
X71425338Y-66080256D01*
X71169744Y-65824662D01*
X70905443Y-65648061D01*
X87965000Y-65648061D01*
X87965000Y-65851939D01*
X88004774Y-66051898D01*
X88082795Y-66240256D01*
X88196063Y-66409774D01*
X88340226Y-66553937D01*
X88509744Y-66667205D01*
X88698102Y-66745226D01*
X88898061Y-66785000D01*
X89101939Y-66785000D01*
X89301898Y-66745226D01*
X89490256Y-66667205D01*
X89613285Y-66585000D01*
X91458982Y-66585000D01*
X91500000Y-66589040D01*
X91541018Y-66585000D01*
X92654133Y-66585000D01*
X93725908Y-67656776D01*
X93754774Y-67801898D01*
X93832795Y-67990256D01*
X93946063Y-68159774D01*
X94090226Y-68303937D01*
X94259744Y-68417205D01*
X94448102Y-68495226D01*
X94648061Y-68535000D01*
X94851939Y-68535000D01*
X95051898Y-68495226D01*
X95240256Y-68417205D01*
X95409774Y-68303937D01*
X95553937Y-68159774D01*
X95667205Y-67990256D01*
X95745226Y-67801898D01*
X95785000Y-67601939D01*
X95785000Y-67398061D01*
X95745226Y-67198102D01*
X95667205Y-67009744D01*
X95553937Y-66840226D01*
X95409774Y-66696063D01*
X95240256Y-66582795D01*
X95051898Y-66504774D01*
X94906776Y-66475908D01*
X93619446Y-65188579D01*
X93593291Y-65156709D01*
X93466146Y-65052364D01*
X93409032Y-65021836D01*
X93561428Y-64869440D01*
X93593291Y-64843291D01*
X93697636Y-64716146D01*
X93775172Y-64571087D01*
X93822918Y-64413689D01*
X93835000Y-64291019D01*
X93835000Y-64291009D01*
X93839039Y-64250001D01*
X93835000Y-64208993D01*
X93835000Y-61850000D01*
X120511928Y-61850000D01*
X120524188Y-61974482D01*
X120560498Y-62094180D01*
X120619463Y-62204494D01*
X120698815Y-62301185D01*
X120795506Y-62380537D01*
X120905820Y-62439502D01*
X120978380Y-62461513D01*
X120846525Y-62593368D01*
X120684010Y-62836589D01*
X120572068Y-63106842D01*
X120515000Y-63393740D01*
X120515000Y-63686260D01*
X120572068Y-63973158D01*
X120684010Y-64243411D01*
X120846525Y-64486632D01*
X121053368Y-64693475D01*
X121227760Y-64810000D01*
X121053368Y-64926525D01*
X120846525Y-65133368D01*
X120684010Y-65376589D01*
X120572068Y-65646842D01*
X120515000Y-65933740D01*
X120515000Y-66226260D01*
X120572068Y-66513158D01*
X120684010Y-66783411D01*
X120846525Y-67026632D01*
X121053368Y-67233475D01*
X121227760Y-67350000D01*
X121053368Y-67466525D01*
X120846525Y-67673368D01*
X120684010Y-67916589D01*
X120572068Y-68186842D01*
X120515000Y-68473740D01*
X120515000Y-68766260D01*
X120572068Y-69053158D01*
X120684010Y-69323411D01*
X120846525Y-69566632D01*
X121053368Y-69773475D01*
X121296589Y-69935990D01*
X121566842Y-70047932D01*
X121853740Y-70105000D01*
X122146260Y-70105000D01*
X122433158Y-70047932D01*
X122703411Y-69935990D01*
X122946632Y-69773475D01*
X123153475Y-69566632D01*
X123315990Y-69323411D01*
X123427932Y-69053158D01*
X123485000Y-68766260D01*
X123485000Y-68473740D01*
X123427932Y-68186842D01*
X123315990Y-67916589D01*
X123153475Y-67673368D01*
X122946632Y-67466525D01*
X122772240Y-67350000D01*
X122946632Y-67233475D01*
X123153475Y-67026632D01*
X123315990Y-66783411D01*
X123427932Y-66513158D01*
X123485000Y-66226260D01*
X123485000Y-65933740D01*
X123427932Y-65646842D01*
X123315990Y-65376589D01*
X123153475Y-65133368D01*
X122946632Y-64926525D01*
X122772240Y-64810000D01*
X122946632Y-64693475D01*
X123153475Y-64486632D01*
X123315990Y-64243411D01*
X123427932Y-63973158D01*
X123485000Y-63686260D01*
X123485000Y-63393740D01*
X123427932Y-63106842D01*
X123315990Y-62836589D01*
X123153475Y-62593368D01*
X123021620Y-62461513D01*
X123094180Y-62439502D01*
X123204494Y-62380537D01*
X123301185Y-62301185D01*
X123380537Y-62204494D01*
X123439502Y-62094180D01*
X123475812Y-61974482D01*
X123488072Y-61850000D01*
X123485000Y-61285750D01*
X123326250Y-61127000D01*
X122127000Y-61127000D01*
X122127000Y-61147000D01*
X121873000Y-61147000D01*
X121873000Y-61127000D01*
X120673750Y-61127000D01*
X120515000Y-61285750D01*
X120511928Y-61850000D01*
X93835000Y-61850000D01*
X93835000Y-61363285D01*
X93917205Y-61240256D01*
X93995226Y-61051898D01*
X94035000Y-60851939D01*
X94035000Y-60648061D01*
X93995226Y-60448102D01*
X93917205Y-60259744D01*
X93843877Y-60150000D01*
X120511928Y-60150000D01*
X120515000Y-60714250D01*
X120673750Y-60873000D01*
X121873000Y-60873000D01*
X121873000Y-59673750D01*
X122127000Y-59673750D01*
X122127000Y-60873000D01*
X123326250Y-60873000D01*
X123485000Y-60714250D01*
X123488072Y-60150000D01*
X123475812Y-60025518D01*
X123439502Y-59905820D01*
X123380537Y-59795506D01*
X123301185Y-59698815D01*
X123204494Y-59619463D01*
X123094180Y-59560498D01*
X122974482Y-59524188D01*
X122850000Y-59511928D01*
X122285750Y-59515000D01*
X122127000Y-59673750D01*
X121873000Y-59673750D01*
X121714250Y-59515000D01*
X121150000Y-59511928D01*
X121025518Y-59524188D01*
X120905820Y-59560498D01*
X120795506Y-59619463D01*
X120698815Y-59698815D01*
X120619463Y-59795506D01*
X120560498Y-59905820D01*
X120524188Y-60025518D01*
X120511928Y-60150000D01*
X93843877Y-60150000D01*
X93803937Y-60090226D01*
X93659774Y-59946063D01*
X93490256Y-59832795D01*
X93301898Y-59754774D01*
X93101939Y-59715000D01*
X92898061Y-59715000D01*
X92698102Y-59754774D01*
X92509744Y-59832795D01*
X92340226Y-59946063D01*
X92196063Y-60090226D01*
X92082795Y-60259744D01*
X92004774Y-60448102D01*
X91965000Y-60648061D01*
X91965000Y-60851939D01*
X92004774Y-61051898D01*
X92082795Y-61240256D01*
X92165001Y-61363286D01*
X92165000Y-63904132D01*
X91154133Y-64915000D01*
X89613285Y-64915000D01*
X89490256Y-64832795D01*
X89301898Y-64754774D01*
X89101939Y-64715000D01*
X88898061Y-64715000D01*
X88698102Y-64754774D01*
X88509744Y-64832795D01*
X88340226Y-64946063D01*
X88196063Y-65090226D01*
X88082795Y-65259744D01*
X88004774Y-65448102D01*
X87965000Y-65648061D01*
X70905443Y-65648061D01*
X70869199Y-65623844D01*
X70779426Y-65586659D01*
X71200000Y-65588072D01*
X71324482Y-65575812D01*
X71444180Y-65539502D01*
X71554494Y-65480537D01*
X71651185Y-65401185D01*
X71730537Y-65304494D01*
X71789502Y-65194180D01*
X71825812Y-65074482D01*
X71838072Y-64950000D01*
X71835000Y-64035750D01*
X71676250Y-63877000D01*
X70127000Y-63877000D01*
X70127000Y-63897000D01*
X69873000Y-63897000D01*
X69873000Y-63877000D01*
X68323750Y-63877000D01*
X68165000Y-64035750D01*
X68161928Y-64950000D01*
X65660000Y-64950000D01*
X65660000Y-62550000D01*
X68161928Y-62550000D01*
X68165000Y-63464250D01*
X68323750Y-63623000D01*
X69873000Y-63623000D01*
X69873000Y-62073750D01*
X70127000Y-62073750D01*
X70127000Y-63623000D01*
X71676250Y-63623000D01*
X71835000Y-63464250D01*
X71838072Y-62550000D01*
X71825812Y-62425518D01*
X71789502Y-62305820D01*
X71730537Y-62195506D01*
X71651185Y-62098815D01*
X71554494Y-62019463D01*
X71444180Y-61960498D01*
X71324482Y-61924188D01*
X71200000Y-61911928D01*
X70285750Y-61915000D01*
X70127000Y-62073750D01*
X69873000Y-62073750D01*
X69714250Y-61915000D01*
X68800000Y-61911928D01*
X68675518Y-61924188D01*
X68555820Y-61960498D01*
X68445506Y-62019463D01*
X68348815Y-62098815D01*
X68269463Y-62195506D01*
X68210498Y-62305820D01*
X68174188Y-62425518D01*
X68161928Y-62550000D01*
X65660000Y-62550000D01*
X65660000Y-59532279D01*
X65669580Y-59434576D01*
X65688580Y-59371644D01*
X65719445Y-59313595D01*
X65760989Y-59262657D01*
X65811644Y-59220752D01*
X65869471Y-59189485D01*
X65932272Y-59170044D01*
X66027835Y-59160000D01*
X123967721Y-59160000D01*
X124065424Y-59169580D01*
%TA.AperFunction,Conductor*%
D18*
G36*
X124065424Y-59169580D02*
G01*
X124128356Y-59188580D01*
X124186405Y-59219445D01*
X124237343Y-59260989D01*
X124279248Y-59311644D01*
X124310515Y-59369471D01*
X124329956Y-59432272D01*
X124340000Y-59527835D01*
X124340001Y-89467711D01*
X124330420Y-89565424D01*
X124311420Y-89628357D01*
X124280554Y-89686406D01*
X124239011Y-89737343D01*
X124188356Y-89779248D01*
X124130529Y-89810515D01*
X124067728Y-89829956D01*
X123972165Y-89840000D01*
X66032279Y-89840000D01*
X65934576Y-89830420D01*
X65871643Y-89811420D01*
X65813594Y-89780554D01*
X65762657Y-89739011D01*
X65720752Y-89688356D01*
X65689485Y-89630529D01*
X65670044Y-89567728D01*
X65660000Y-89472165D01*
X65660000Y-80681964D01*
X69715000Y-80681964D01*
X69715000Y-81318037D01*
X69735040Y-81521507D01*
X69814236Y-81782581D01*
X69942843Y-82023188D01*
X70115920Y-82234081D01*
X70326813Y-82407157D01*
X70567420Y-82535764D01*
X70828494Y-82614960D01*
X71100000Y-82641701D01*
X71371507Y-82614960D01*
X71632581Y-82535764D01*
X71873188Y-82407157D01*
X72084081Y-82234081D01*
X72257157Y-82023188D01*
X72385764Y-81782580D01*
X72464960Y-81521506D01*
X72485000Y-81318036D01*
X72485000Y-80838967D01*
X73865000Y-80838967D01*
X73865000Y-81161033D01*
X73927832Y-81476912D01*
X74051082Y-81774463D01*
X74230013Y-82042252D01*
X74457748Y-82269987D01*
X74725537Y-82448918D01*
X75023088Y-82572168D01*
X75338967Y-82635000D01*
X75661033Y-82635000D01*
X75976912Y-82572168D01*
X76274463Y-82448918D01*
X76542252Y-82269987D01*
X76769987Y-82042252D01*
X76948918Y-81774463D01*
X77072168Y-81476912D01*
X77135000Y-81161033D01*
X77135000Y-80838967D01*
X77072168Y-80523088D01*
X76948918Y-80225537D01*
X76769987Y-79957748D01*
X76542252Y-79730013D01*
X76274463Y-79551082D01*
X75976912Y-79427832D01*
X75661033Y-79365000D01*
X75338967Y-79365000D01*
X75023088Y-79427832D01*
X74725537Y-79551082D01*
X74457748Y-79730013D01*
X74230013Y-79957748D01*
X74051082Y-80225537D01*
X73927832Y-80523088D01*
X73865000Y-80838967D01*
X72485000Y-80838967D01*
X72485000Y-80681963D01*
X72464960Y-80478493D01*
X72385764Y-80217419D01*
X72257157Y-79976812D01*
X72084080Y-79765919D01*
X71873187Y-79592843D01*
X71632580Y-79464236D01*
X71371506Y-79385040D01*
X71100000Y-79358299D01*
X70828493Y-79385040D01*
X70567419Y-79464236D01*
X70326812Y-79592843D01*
X70115919Y-79765920D01*
X69942843Y-79976813D01*
X69814236Y-80217420D01*
X69735040Y-80478494D01*
X69715000Y-80681964D01*
X65660000Y-80681964D01*
X65660000Y-73798061D01*
X81465000Y-73798061D01*
X81465000Y-74001939D01*
X81504774Y-74201898D01*
X81582795Y-74390256D01*
X81696063Y-74559774D01*
X81740001Y-74603712D01*
X81740000Y-76396289D01*
X81696063Y-76440226D01*
X81582795Y-76609744D01*
X81504774Y-76798102D01*
X81465000Y-76998061D01*
X81465000Y-77201939D01*
X81504774Y-77401898D01*
X81582795Y-77590256D01*
X81696063Y-77759774D01*
X81840226Y-77903937D01*
X82009744Y-78017205D01*
X82198102Y-78095226D01*
X82398061Y-78135000D01*
X82601939Y-78135000D01*
X82801898Y-78095226D01*
X82990256Y-78017205D01*
X83159774Y-77903937D01*
X83303937Y-77759774D01*
X83417205Y-77590256D01*
X83495226Y-77401898D01*
X83535000Y-77201939D01*
X83535000Y-76998061D01*
X83495226Y-76798102D01*
X83417205Y-76609744D01*
X83303937Y-76440226D01*
X83260000Y-76396289D01*
X83260000Y-76150000D01*
X120511928Y-76150000D01*
X120511928Y-77850000D01*
X120524188Y-77974482D01*
X120560498Y-78094180D01*
X120619463Y-78204494D01*
X120698815Y-78301185D01*
X120795506Y-78380537D01*
X120905820Y-78439502D01*
X121025518Y-78475812D01*
X121150000Y-78488072D01*
X122850000Y-78488072D01*
X122974482Y-78475812D01*
X123094180Y-78439502D01*
X123204494Y-78380537D01*
X123301185Y-78301185D01*
X123380537Y-78204494D01*
X123439502Y-78094180D01*
X123475812Y-77974482D01*
X123488072Y-77850000D01*
X123488072Y-76150000D01*
X123475812Y-76025518D01*
X123439502Y-75905820D01*
X123380537Y-75795506D01*
X123301185Y-75698815D01*
X123204494Y-75619463D01*
X123094180Y-75560498D01*
X123021620Y-75538487D01*
X123153475Y-75406632D01*
X123315990Y-75163411D01*
X123427932Y-74893158D01*
X123485000Y-74606260D01*
X123485000Y-74313740D01*
X123427932Y-74026842D01*
X123315990Y-73756589D01*
X123153475Y-73513368D01*
X122946632Y-73306525D01*
X122703411Y-73144010D01*
X122433158Y-73032068D01*
X122146260Y-72975000D01*
X121853740Y-72975000D01*
X121566842Y-73032068D01*
X121296589Y-73144010D01*
X121053368Y-73306525D01*
X120846525Y-73513368D01*
X120684010Y-73756589D01*
X120572068Y-74026842D01*
X120515000Y-74313740D01*
X120515000Y-74606260D01*
X120572068Y-74893158D01*
X120684010Y-75163411D01*
X120846525Y-75406632D01*
X120978380Y-75538487D01*
X120905820Y-75560498D01*
X120795506Y-75619463D01*
X120698815Y-75698815D01*
X120619463Y-75795506D01*
X120560498Y-75905820D01*
X120524188Y-76025518D01*
X120511928Y-76150000D01*
X83260000Y-76150000D01*
X83260000Y-74603711D01*
X83303937Y-74559774D01*
X83417205Y-74390256D01*
X83495226Y-74201898D01*
X83535000Y-74001939D01*
X83535000Y-73798061D01*
X83495226Y-73598102D01*
X83417205Y-73409744D01*
X83303937Y-73240226D01*
X83159774Y-73096063D01*
X82990256Y-72982795D01*
X82801898Y-72904774D01*
X82601939Y-72865000D01*
X82398061Y-72865000D01*
X82198102Y-72904774D01*
X82009744Y-72982795D01*
X81840226Y-73096063D01*
X81696063Y-73240226D01*
X81582795Y-73409744D01*
X81504774Y-73598102D01*
X81465000Y-73798061D01*
X65660000Y-73798061D01*
X65660000Y-64950000D01*
X68161928Y-64950000D01*
X68174188Y-65074482D01*
X68210498Y-65194180D01*
X68269463Y-65304494D01*
X68348815Y-65401185D01*
X68445506Y-65480537D01*
X68555820Y-65539502D01*
X68675518Y-65575812D01*
X68800000Y-65588072D01*
X69220574Y-65586659D01*
X69130801Y-65623844D01*
X68830256Y-65824662D01*
X68574662Y-66080256D01*
X68373844Y-66380801D01*
X68235518Y-66714750D01*
X68165000Y-67069268D01*
X68165000Y-67430732D01*
X68235518Y-67785250D01*
X68373844Y-68119199D01*
X68574662Y-68419744D01*
X68830256Y-68675338D01*
X69130801Y-68876156D01*
X69464750Y-69014482D01*
X69819268Y-69085000D01*
X70180732Y-69085000D01*
X70535250Y-69014482D01*
X70869199Y-68876156D01*
X71169744Y-68675338D01*
X71425338Y-68419744D01*
X71626156Y-68119199D01*
X71764482Y-67785250D01*
X71835000Y-67430732D01*
X71835000Y-67069268D01*
X71764482Y-66714750D01*
X71626156Y-66380801D01*
X71425338Y-66080256D01*
X71169744Y-65824662D01*
X70905443Y-65648061D01*
X87965000Y-65648061D01*
X87965000Y-65851939D01*
X88004774Y-66051898D01*
X88082795Y-66240256D01*
X88196063Y-66409774D01*
X88340226Y-66553937D01*
X88509744Y-66667205D01*
X88698102Y-66745226D01*
X88898061Y-66785000D01*
X89101939Y-66785000D01*
X89301898Y-66745226D01*
X89490256Y-66667205D01*
X89613285Y-66585000D01*
X91458982Y-66585000D01*
X91500000Y-66589040D01*
X91541018Y-66585000D01*
X92654133Y-66585000D01*
X93725908Y-67656776D01*
X93754774Y-67801898D01*
X93832795Y-67990256D01*
X93946063Y-68159774D01*
X94090226Y-68303937D01*
X94259744Y-68417205D01*
X94448102Y-68495226D01*
X94648061Y-68535000D01*
X94851939Y-68535000D01*
X95051898Y-68495226D01*
X95240256Y-68417205D01*
X95409774Y-68303937D01*
X95553937Y-68159774D01*
X95667205Y-67990256D01*
X95745226Y-67801898D01*
X95785000Y-67601939D01*
X95785000Y-67398061D01*
X95745226Y-67198102D01*
X95667205Y-67009744D01*
X95553937Y-66840226D01*
X95409774Y-66696063D01*
X95240256Y-66582795D01*
X95051898Y-66504774D01*
X94906776Y-66475908D01*
X93619446Y-65188579D01*
X93593291Y-65156709D01*
X93466146Y-65052364D01*
X93409032Y-65021836D01*
X93561428Y-64869440D01*
X93593291Y-64843291D01*
X93697636Y-64716146D01*
X93775172Y-64571087D01*
X93822918Y-64413689D01*
X93835000Y-64291019D01*
X93835000Y-64291009D01*
X93839039Y-64250001D01*
X93835000Y-64208993D01*
X93835000Y-61850000D01*
X120511928Y-61850000D01*
X120524188Y-61974482D01*
X120560498Y-62094180D01*
X120619463Y-62204494D01*
X120698815Y-62301185D01*
X120795506Y-62380537D01*
X120905820Y-62439502D01*
X120978380Y-62461513D01*
X120846525Y-62593368D01*
X120684010Y-62836589D01*
X120572068Y-63106842D01*
X120515000Y-63393740D01*
X120515000Y-63686260D01*
X120572068Y-63973158D01*
X120684010Y-64243411D01*
X120846525Y-64486632D01*
X121053368Y-64693475D01*
X121227760Y-64810000D01*
X121053368Y-64926525D01*
X120846525Y-65133368D01*
X120684010Y-65376589D01*
X120572068Y-65646842D01*
X120515000Y-65933740D01*
X120515000Y-66226260D01*
X120572068Y-66513158D01*
X120684010Y-66783411D01*
X120846525Y-67026632D01*
X121053368Y-67233475D01*
X121227760Y-67350000D01*
X121053368Y-67466525D01*
X120846525Y-67673368D01*
X120684010Y-67916589D01*
X120572068Y-68186842D01*
X120515000Y-68473740D01*
X120515000Y-68766260D01*
X120572068Y-69053158D01*
X120684010Y-69323411D01*
X120846525Y-69566632D01*
X121053368Y-69773475D01*
X121296589Y-69935990D01*
X121566842Y-70047932D01*
X121853740Y-70105000D01*
X122146260Y-70105000D01*
X122433158Y-70047932D01*
X122703411Y-69935990D01*
X122946632Y-69773475D01*
X123153475Y-69566632D01*
X123315990Y-69323411D01*
X123427932Y-69053158D01*
X123485000Y-68766260D01*
X123485000Y-68473740D01*
X123427932Y-68186842D01*
X123315990Y-67916589D01*
X123153475Y-67673368D01*
X122946632Y-67466525D01*
X122772240Y-67350000D01*
X122946632Y-67233475D01*
X123153475Y-67026632D01*
X123315990Y-66783411D01*
X123427932Y-66513158D01*
X123485000Y-66226260D01*
X123485000Y-65933740D01*
X123427932Y-65646842D01*
X123315990Y-65376589D01*
X123153475Y-65133368D01*
X122946632Y-64926525D01*
X122772240Y-64810000D01*
X122946632Y-64693475D01*
X123153475Y-64486632D01*
X123315990Y-64243411D01*
X123427932Y-63973158D01*
X123485000Y-63686260D01*
X123485000Y-63393740D01*
X123427932Y-63106842D01*
X123315990Y-62836589D01*
X123153475Y-62593368D01*
X123021620Y-62461513D01*
X123094180Y-62439502D01*
X123204494Y-62380537D01*
X123301185Y-62301185D01*
X123380537Y-62204494D01*
X123439502Y-62094180D01*
X123475812Y-61974482D01*
X123488072Y-61850000D01*
X123485000Y-61285750D01*
X123326250Y-61127000D01*
X122127000Y-61127000D01*
X122127000Y-61147000D01*
X121873000Y-61147000D01*
X121873000Y-61127000D01*
X120673750Y-61127000D01*
X120515000Y-61285750D01*
X120511928Y-61850000D01*
X93835000Y-61850000D01*
X93835000Y-61363285D01*
X93917205Y-61240256D01*
X93995226Y-61051898D01*
X94035000Y-60851939D01*
X94035000Y-60648061D01*
X93995226Y-60448102D01*
X93917205Y-60259744D01*
X93843877Y-60150000D01*
X120511928Y-60150000D01*
X120515000Y-60714250D01*
X120673750Y-60873000D01*
X121873000Y-60873000D01*
X121873000Y-59673750D01*
X122127000Y-59673750D01*
X122127000Y-60873000D01*
X123326250Y-60873000D01*
X123485000Y-60714250D01*
X123488072Y-60150000D01*
X123475812Y-60025518D01*
X123439502Y-59905820D01*
X123380537Y-59795506D01*
X123301185Y-59698815D01*
X123204494Y-59619463D01*
X123094180Y-59560498D01*
X122974482Y-59524188D01*
X122850000Y-59511928D01*
X122285750Y-59515000D01*
X122127000Y-59673750D01*
X121873000Y-59673750D01*
X121714250Y-59515000D01*
X121150000Y-59511928D01*
X121025518Y-59524188D01*
X120905820Y-59560498D01*
X120795506Y-59619463D01*
X120698815Y-59698815D01*
X120619463Y-59795506D01*
X120560498Y-59905820D01*
X120524188Y-60025518D01*
X120511928Y-60150000D01*
X93843877Y-60150000D01*
X93803937Y-60090226D01*
X93659774Y-59946063D01*
X93490256Y-59832795D01*
X93301898Y-59754774D01*
X93101939Y-59715000D01*
X92898061Y-59715000D01*
X92698102Y-59754774D01*
X92509744Y-59832795D01*
X92340226Y-59946063D01*
X92196063Y-60090226D01*
X92082795Y-60259744D01*
X92004774Y-60448102D01*
X91965000Y-60648061D01*
X91965000Y-60851939D01*
X92004774Y-61051898D01*
X92082795Y-61240256D01*
X92165001Y-61363286D01*
X92165000Y-63904132D01*
X91154133Y-64915000D01*
X89613285Y-64915000D01*
X89490256Y-64832795D01*
X89301898Y-64754774D01*
X89101939Y-64715000D01*
X88898061Y-64715000D01*
X88698102Y-64754774D01*
X88509744Y-64832795D01*
X88340226Y-64946063D01*
X88196063Y-65090226D01*
X88082795Y-65259744D01*
X88004774Y-65448102D01*
X87965000Y-65648061D01*
X70905443Y-65648061D01*
X70869199Y-65623844D01*
X70779426Y-65586659D01*
X71200000Y-65588072D01*
X71324482Y-65575812D01*
X71444180Y-65539502D01*
X71554494Y-65480537D01*
X71651185Y-65401185D01*
X71730537Y-65304494D01*
X71789502Y-65194180D01*
X71825812Y-65074482D01*
X71838072Y-64950000D01*
X71835000Y-64035750D01*
X71676250Y-63877000D01*
X70127000Y-63877000D01*
X70127000Y-63897000D01*
X69873000Y-63897000D01*
X69873000Y-63877000D01*
X68323750Y-63877000D01*
X68165000Y-64035750D01*
X68161928Y-64950000D01*
X65660000Y-64950000D01*
X65660000Y-62550000D01*
X68161928Y-62550000D01*
X68165000Y-63464250D01*
X68323750Y-63623000D01*
X69873000Y-63623000D01*
X69873000Y-62073750D01*
X70127000Y-62073750D01*
X70127000Y-63623000D01*
X71676250Y-63623000D01*
X71835000Y-63464250D01*
X71838072Y-62550000D01*
X71825812Y-62425518D01*
X71789502Y-62305820D01*
X71730537Y-62195506D01*
X71651185Y-62098815D01*
X71554494Y-62019463D01*
X71444180Y-61960498D01*
X71324482Y-61924188D01*
X71200000Y-61911928D01*
X70285750Y-61915000D01*
X70127000Y-62073750D01*
X69873000Y-62073750D01*
X69714250Y-61915000D01*
X68800000Y-61911928D01*
X68675518Y-61924188D01*
X68555820Y-61960498D01*
X68445506Y-62019463D01*
X68348815Y-62098815D01*
X68269463Y-62195506D01*
X68210498Y-62305820D01*
X68174188Y-62425518D01*
X68161928Y-62550000D01*
X65660000Y-62550000D01*
X65660000Y-59532279D01*
X65669580Y-59434576D01*
X65688580Y-59371644D01*
X65719445Y-59313595D01*
X65760989Y-59262657D01*
X65811644Y-59220752D01*
X65869471Y-59189485D01*
X65932272Y-59170044D01*
X66027835Y-59160000D01*
X123967721Y-59160000D01*
X124065424Y-59169580D01*
G37*
%TD.AperFunction*%
%TD*%
M02*
