%TF.GenerationSoftware,KiCad,Pcbnew,5.99.0+really5.1.10+dfsg1-1*%
%TF.CreationDate,2022-02-08T15:36:29-05:00*%
%TF.ProjectId,hotwire-lite,686f7477-6972-4652-9d6c-6974652e6b69,rev?*%
%TF.SameCoordinates,Original*%
%TF.FileFunction,Soldermask,Top*%
%TF.FilePolarity,Negative*%
%FSLAX46Y46*%
G04 Gerber Fmt 4.6, Leading zero omitted, Abs format (unit mm)*
G04 Created by KiCad (PCBNEW 5.99.0+really5.1.10+dfsg1-1) date 2022-02-08 15:36:29*
%MOMM*%
%LPD*%
G01*
G04 APERTURE LIST*
%ADD10O,1.700000X1.700000*%
%ADD11R,1.700000X1.700000*%
%ADD12R,2.000000X3.800000*%
%ADD13R,2.000000X1.500000*%
%ADD14R,2.000000X3.000000*%
%ADD15C,2.000000*%
%ADD16O,1.500000X2.000000*%
%ADD17R,1.060000X0.650000*%
%ADD18C,1.000000*%
%ADD19R,2.400000X2.400000*%
%ADD20C,2.400000*%
%ADD21R,1.550000X1.300000*%
G04 APERTURE END LIST*
%TO.C,C1*%
G36*
G01*
X76800000Y-70275000D02*
X76800000Y-71225000D01*
G75*
G02*
X76550000Y-71475000I-250000J0D01*
G01*
X76050000Y-71475000D01*
G75*
G02*
X75800000Y-71225000I0J250000D01*
G01*
X75800000Y-70275000D01*
G75*
G02*
X76050000Y-70025000I250000J0D01*
G01*
X76550000Y-70025000D01*
G75*
G02*
X76800000Y-70275000I0J-250000D01*
G01*
G37*
G36*
G01*
X78700000Y-70275000D02*
X78700000Y-71225000D01*
G75*
G02*
X78450000Y-71475000I-250000J0D01*
G01*
X77950000Y-71475000D01*
G75*
G02*
X77700000Y-71225000I0J250000D01*
G01*
X77700000Y-70275000D01*
G75*
G02*
X77950000Y-70025000I250000J0D01*
G01*
X78450000Y-70025000D01*
G75*
G02*
X78700000Y-70275000I0J-250000D01*
G01*
G37*
%TD*%
%TO.C,R6*%
G36*
G01*
X102400000Y-66700002D02*
X102400000Y-65799998D01*
G75*
G02*
X102649998Y-65550000I249998J0D01*
G01*
X103175002Y-65550000D01*
G75*
G02*
X103425000Y-65799998I0J-249998D01*
G01*
X103425000Y-66700002D01*
G75*
G02*
X103175002Y-66950000I-249998J0D01*
G01*
X102649998Y-66950000D01*
G75*
G02*
X102400000Y-66700002I0J249998D01*
G01*
G37*
G36*
G01*
X100575000Y-66700002D02*
X100575000Y-65799998D01*
G75*
G02*
X100824998Y-65550000I249998J0D01*
G01*
X101350002Y-65550000D01*
G75*
G02*
X101600000Y-65799998I0J-249998D01*
G01*
X101600000Y-66700002D01*
G75*
G02*
X101350002Y-66950000I-249998J0D01*
G01*
X100824998Y-66950000D01*
G75*
G02*
X100575000Y-66700002I0J249998D01*
G01*
G37*
%TD*%
%TO.C,R3*%
G36*
G01*
X85949998Y-73687500D02*
X86850002Y-73687500D01*
G75*
G02*
X87100000Y-73937498I0J-249998D01*
G01*
X87100000Y-74462502D01*
G75*
G02*
X86850002Y-74712500I-249998J0D01*
G01*
X85949998Y-74712500D01*
G75*
G02*
X85700000Y-74462502I0J249998D01*
G01*
X85700000Y-73937498D01*
G75*
G02*
X85949998Y-73687500I249998J0D01*
G01*
G37*
G36*
G01*
X85949998Y-71862500D02*
X86850002Y-71862500D01*
G75*
G02*
X87100000Y-72112498I0J-249998D01*
G01*
X87100000Y-72637502D01*
G75*
G02*
X86850002Y-72887500I-249998J0D01*
G01*
X85949998Y-72887500D01*
G75*
G02*
X85700000Y-72637502I0J249998D01*
G01*
X85700000Y-72112498D01*
G75*
G02*
X85949998Y-71862500I249998J0D01*
G01*
G37*
%TD*%
D10*
%TO.C,J3*%
X122000000Y-68620000D03*
X122000000Y-66080000D03*
X122000000Y-63540000D03*
D11*
X122000000Y-61000000D03*
%TD*%
D10*
%TO.C,J4*%
X122000000Y-74460000D03*
D11*
X122000000Y-77000000D03*
%TD*%
D12*
%TO.C,U1*%
X84900000Y-65750000D03*
D13*
X78600000Y-65750000D03*
X78600000Y-68050000D03*
X78600000Y-63450000D03*
%TD*%
%TO.C,R4*%
G36*
G01*
X101350000Y-62549998D02*
X101350000Y-63450002D01*
G75*
G02*
X101100002Y-63700000I-249998J0D01*
G01*
X100574998Y-63700000D01*
G75*
G02*
X100325000Y-63450002I0J249998D01*
G01*
X100325000Y-62549998D01*
G75*
G02*
X100574998Y-62300000I249998J0D01*
G01*
X101100002Y-62300000D01*
G75*
G02*
X101350000Y-62549998I0J-249998D01*
G01*
G37*
G36*
G01*
X103175000Y-62549998D02*
X103175000Y-63450002D01*
G75*
G02*
X102925002Y-63700000I-249998J0D01*
G01*
X102399998Y-63700000D01*
G75*
G02*
X102150000Y-63450002I0J249998D01*
G01*
X102150000Y-62549998D01*
G75*
G02*
X102399998Y-62300000I249998J0D01*
G01*
X102925002Y-62300000D01*
G75*
G02*
X103175000Y-62549998I0J-249998D01*
G01*
G37*
%TD*%
%TO.C,R5*%
G36*
G01*
X96950002Y-67350000D02*
X96049998Y-67350000D01*
G75*
G02*
X95800000Y-67100002I0J249998D01*
G01*
X95800000Y-66574998D01*
G75*
G02*
X96049998Y-66325000I249998J0D01*
G01*
X96950002Y-66325000D01*
G75*
G02*
X97200000Y-66574998I0J-249998D01*
G01*
X97200000Y-67100002D01*
G75*
G02*
X96950002Y-67350000I-249998J0D01*
G01*
G37*
G36*
G01*
X96950002Y-69175000D02*
X96049998Y-69175000D01*
G75*
G02*
X95800000Y-68925002I0J249998D01*
G01*
X95800000Y-68399998D01*
G75*
G02*
X96049998Y-68150000I249998J0D01*
G01*
X96950002Y-68150000D01*
G75*
G02*
X97200000Y-68399998I0J-249998D01*
G01*
X97200000Y-68925002D01*
G75*
G02*
X96950002Y-69175000I-249998J0D01*
G01*
G37*
%TD*%
%TO.C,R2*%
G36*
G01*
X83949998Y-71800000D02*
X84850002Y-71800000D01*
G75*
G02*
X85100000Y-72049998I0J-249998D01*
G01*
X85100000Y-72575002D01*
G75*
G02*
X84850002Y-72825000I-249998J0D01*
G01*
X83949998Y-72825000D01*
G75*
G02*
X83700000Y-72575002I0J249998D01*
G01*
X83700000Y-72049998D01*
G75*
G02*
X83949998Y-71800000I249998J0D01*
G01*
G37*
G36*
G01*
X83949998Y-69975000D02*
X84850002Y-69975000D01*
G75*
G02*
X85100000Y-70224998I0J-249998D01*
G01*
X85100000Y-70750002D01*
G75*
G02*
X84850002Y-71000000I-249998J0D01*
G01*
X83949998Y-71000000D01*
G75*
G02*
X83700000Y-70750002I0J249998D01*
G01*
X83700000Y-70224998D01*
G75*
G02*
X83949998Y-69975000I249998J0D01*
G01*
G37*
%TD*%
%TO.C,R1*%
G36*
G01*
X82850002Y-71000000D02*
X81949998Y-71000000D01*
G75*
G02*
X81700000Y-70750002I0J249998D01*
G01*
X81700000Y-70224998D01*
G75*
G02*
X81949998Y-69975000I249998J0D01*
G01*
X82850002Y-69975000D01*
G75*
G02*
X83100000Y-70224998I0J-249998D01*
G01*
X83100000Y-70750002D01*
G75*
G02*
X82850002Y-71000000I-249998J0D01*
G01*
G37*
G36*
G01*
X82850002Y-72825000D02*
X81949998Y-72825000D01*
G75*
G02*
X81700000Y-72575002I0J249998D01*
G01*
X81700000Y-72049998D01*
G75*
G02*
X81949998Y-71800000I249998J0D01*
G01*
X82850002Y-71800000D01*
G75*
G02*
X83100000Y-72049998I0J-249998D01*
G01*
X83100000Y-72575002D01*
G75*
G02*
X82850002Y-72825000I-249998J0D01*
G01*
G37*
%TD*%
%TO.C,D1*%
G36*
G01*
X101300000Y-60043750D02*
X101300000Y-60956250D01*
G75*
G02*
X101056250Y-61200000I-243750J0D01*
G01*
X100568750Y-61200000D01*
G75*
G02*
X100325000Y-60956250I0J243750D01*
G01*
X100325000Y-60043750D01*
G75*
G02*
X100568750Y-59800000I243750J0D01*
G01*
X101056250Y-59800000D01*
G75*
G02*
X101300000Y-60043750I0J-243750D01*
G01*
G37*
G36*
G01*
X103175000Y-60043750D02*
X103175000Y-60956250D01*
G75*
G02*
X102931250Y-61200000I-243750J0D01*
G01*
X102443750Y-61200000D01*
G75*
G02*
X102200000Y-60956250I0J243750D01*
G01*
X102200000Y-60043750D01*
G75*
G02*
X102443750Y-59800000I243750J0D01*
G01*
X102931250Y-59800000D01*
G75*
G02*
X103175000Y-60043750I0J-243750D01*
G01*
G37*
%TD*%
%TO.C,C4*%
G36*
G01*
X97700000Y-71475000D02*
X97700000Y-70525000D01*
G75*
G02*
X97950000Y-70275000I250000J0D01*
G01*
X98450000Y-70275000D01*
G75*
G02*
X98700000Y-70525000I0J-250000D01*
G01*
X98700000Y-71475000D01*
G75*
G02*
X98450000Y-71725000I-250000J0D01*
G01*
X97950000Y-71725000D01*
G75*
G02*
X97700000Y-71475000I0J250000D01*
G01*
G37*
G36*
G01*
X95800000Y-71475000D02*
X95800000Y-70525000D01*
G75*
G02*
X96050000Y-70275000I250000J0D01*
G01*
X96550000Y-70275000D01*
G75*
G02*
X96800000Y-70525000I0J-250000D01*
G01*
X96800000Y-71475000D01*
G75*
G02*
X96550000Y-71725000I-250000J0D01*
G01*
X96050000Y-71725000D01*
G75*
G02*
X95800000Y-71475000I0J250000D01*
G01*
G37*
%TD*%
%TO.C,C3*%
G36*
G01*
X96700000Y-63475000D02*
X96700000Y-62525000D01*
G75*
G02*
X96950000Y-62275000I250000J0D01*
G01*
X97450000Y-62275000D01*
G75*
G02*
X97700000Y-62525000I0J-250000D01*
G01*
X97700000Y-63475000D01*
G75*
G02*
X97450000Y-63725000I-250000J0D01*
G01*
X96950000Y-63725000D01*
G75*
G02*
X96700000Y-63475000I0J250000D01*
G01*
G37*
G36*
G01*
X94800000Y-63475000D02*
X94800000Y-62525000D01*
G75*
G02*
X95050000Y-62275000I250000J0D01*
G01*
X95550000Y-62275000D01*
G75*
G02*
X95800000Y-62525000I0J-250000D01*
G01*
X95800000Y-63475000D01*
G75*
G02*
X95550000Y-63725000I-250000J0D01*
G01*
X95050000Y-63725000D01*
G75*
G02*
X94800000Y-63475000I0J250000D01*
G01*
G37*
%TD*%
%TO.C,C2*%
G36*
G01*
X76225000Y-63050000D02*
X75275000Y-63050000D01*
G75*
G02*
X75025000Y-62800000I0J250000D01*
G01*
X75025000Y-62300000D01*
G75*
G02*
X75275000Y-62050000I250000J0D01*
G01*
X76225000Y-62050000D01*
G75*
G02*
X76475000Y-62300000I0J-250000D01*
G01*
X76475000Y-62800000D01*
G75*
G02*
X76225000Y-63050000I-250000J0D01*
G01*
G37*
G36*
G01*
X76225000Y-64950000D02*
X75275000Y-64950000D01*
G75*
G02*
X75025000Y-64700000I0J250000D01*
G01*
X75025000Y-64200000D01*
G75*
G02*
X75275000Y-63950000I250000J0D01*
G01*
X76225000Y-63950000D01*
G75*
G02*
X76475000Y-64200000I0J-250000D01*
G01*
X76475000Y-64700000D01*
G75*
G02*
X76225000Y-64950000I-250000J0D01*
G01*
G37*
%TD*%
D14*
%TO.C,J1*%
X71000000Y-86500000D03*
X77000000Y-86500000D03*
X77000000Y-75500000D03*
X71000000Y-75500000D03*
D15*
X75500000Y-81000000D03*
D16*
X71100000Y-81000000D03*
%TD*%
%TO.C,U2*%
G36*
G01*
X92755000Y-67000000D02*
X93055000Y-67000000D01*
G75*
G02*
X93205000Y-67150000I0J-150000D01*
G01*
X93205000Y-68800000D01*
G75*
G02*
X93055000Y-68950000I-150000J0D01*
G01*
X92755000Y-68950000D01*
G75*
G02*
X92605000Y-68800000I0J150000D01*
G01*
X92605000Y-67150000D01*
G75*
G02*
X92755000Y-67000000I150000J0D01*
G01*
G37*
G36*
G01*
X91485000Y-67000000D02*
X91785000Y-67000000D01*
G75*
G02*
X91935000Y-67150000I0J-150000D01*
G01*
X91935000Y-68800000D01*
G75*
G02*
X91785000Y-68950000I-150000J0D01*
G01*
X91485000Y-68950000D01*
G75*
G02*
X91335000Y-68800000I0J150000D01*
G01*
X91335000Y-67150000D01*
G75*
G02*
X91485000Y-67000000I150000J0D01*
G01*
G37*
G36*
G01*
X90215000Y-67000000D02*
X90515000Y-67000000D01*
G75*
G02*
X90665000Y-67150000I0J-150000D01*
G01*
X90665000Y-68800000D01*
G75*
G02*
X90515000Y-68950000I-150000J0D01*
G01*
X90215000Y-68950000D01*
G75*
G02*
X90065000Y-68800000I0J150000D01*
G01*
X90065000Y-67150000D01*
G75*
G02*
X90215000Y-67000000I150000J0D01*
G01*
G37*
G36*
G01*
X88945000Y-67000000D02*
X89245000Y-67000000D01*
G75*
G02*
X89395000Y-67150000I0J-150000D01*
G01*
X89395000Y-68800000D01*
G75*
G02*
X89245000Y-68950000I-150000J0D01*
G01*
X88945000Y-68950000D01*
G75*
G02*
X88795000Y-68800000I0J150000D01*
G01*
X88795000Y-67150000D01*
G75*
G02*
X88945000Y-67000000I150000J0D01*
G01*
G37*
G36*
G01*
X88945000Y-62050000D02*
X89245000Y-62050000D01*
G75*
G02*
X89395000Y-62200000I0J-150000D01*
G01*
X89395000Y-63850000D01*
G75*
G02*
X89245000Y-64000000I-150000J0D01*
G01*
X88945000Y-64000000D01*
G75*
G02*
X88795000Y-63850000I0J150000D01*
G01*
X88795000Y-62200000D01*
G75*
G02*
X88945000Y-62050000I150000J0D01*
G01*
G37*
G36*
G01*
X90215000Y-62050000D02*
X90515000Y-62050000D01*
G75*
G02*
X90665000Y-62200000I0J-150000D01*
G01*
X90665000Y-63850000D01*
G75*
G02*
X90515000Y-64000000I-150000J0D01*
G01*
X90215000Y-64000000D01*
G75*
G02*
X90065000Y-63850000I0J150000D01*
G01*
X90065000Y-62200000D01*
G75*
G02*
X90215000Y-62050000I150000J0D01*
G01*
G37*
G36*
G01*
X91485000Y-62050000D02*
X91785000Y-62050000D01*
G75*
G02*
X91935000Y-62200000I0J-150000D01*
G01*
X91935000Y-63850000D01*
G75*
G02*
X91785000Y-64000000I-150000J0D01*
G01*
X91485000Y-64000000D01*
G75*
G02*
X91335000Y-63850000I0J150000D01*
G01*
X91335000Y-62200000D01*
G75*
G02*
X91485000Y-62050000I150000J0D01*
G01*
G37*
G36*
G01*
X92755000Y-62050000D02*
X93055000Y-62050000D01*
G75*
G02*
X93205000Y-62200000I0J-150000D01*
G01*
X93205000Y-63850000D01*
G75*
G02*
X93055000Y-64000000I-150000J0D01*
G01*
X92755000Y-64000000D01*
G75*
G02*
X92605000Y-63850000I0J150000D01*
G01*
X92605000Y-62200000D01*
G75*
G02*
X92755000Y-62050000I150000J0D01*
G01*
G37*
%TD*%
%TO.C,Q1*%
G36*
G01*
X108255000Y-71500000D02*
X108555000Y-71500000D01*
G75*
G02*
X108705000Y-71650000I0J-150000D01*
G01*
X108705000Y-73300000D01*
G75*
G02*
X108555000Y-73450000I-150000J0D01*
G01*
X108255000Y-73450000D01*
G75*
G02*
X108105000Y-73300000I0J150000D01*
G01*
X108105000Y-71650000D01*
G75*
G02*
X108255000Y-71500000I150000J0D01*
G01*
G37*
G36*
G01*
X106985000Y-71500000D02*
X107285000Y-71500000D01*
G75*
G02*
X107435000Y-71650000I0J-150000D01*
G01*
X107435000Y-73300000D01*
G75*
G02*
X107285000Y-73450000I-150000J0D01*
G01*
X106985000Y-73450000D01*
G75*
G02*
X106835000Y-73300000I0J150000D01*
G01*
X106835000Y-71650000D01*
G75*
G02*
X106985000Y-71500000I150000J0D01*
G01*
G37*
G36*
G01*
X105715000Y-71500000D02*
X106015000Y-71500000D01*
G75*
G02*
X106165000Y-71650000I0J-150000D01*
G01*
X106165000Y-73300000D01*
G75*
G02*
X106015000Y-73450000I-150000J0D01*
G01*
X105715000Y-73450000D01*
G75*
G02*
X105565000Y-73300000I0J150000D01*
G01*
X105565000Y-71650000D01*
G75*
G02*
X105715000Y-71500000I150000J0D01*
G01*
G37*
G36*
G01*
X104445000Y-71500000D02*
X104745000Y-71500000D01*
G75*
G02*
X104895000Y-71650000I0J-150000D01*
G01*
X104895000Y-73300000D01*
G75*
G02*
X104745000Y-73450000I-150000J0D01*
G01*
X104445000Y-73450000D01*
G75*
G02*
X104295000Y-73300000I0J150000D01*
G01*
X104295000Y-71650000D01*
G75*
G02*
X104445000Y-71500000I150000J0D01*
G01*
G37*
G36*
G01*
X104445000Y-66550000D02*
X104745000Y-66550000D01*
G75*
G02*
X104895000Y-66700000I0J-150000D01*
G01*
X104895000Y-68350000D01*
G75*
G02*
X104745000Y-68500000I-150000J0D01*
G01*
X104445000Y-68500000D01*
G75*
G02*
X104295000Y-68350000I0J150000D01*
G01*
X104295000Y-66700000D01*
G75*
G02*
X104445000Y-66550000I150000J0D01*
G01*
G37*
G36*
G01*
X105715000Y-66550000D02*
X106015000Y-66550000D01*
G75*
G02*
X106165000Y-66700000I0J-150000D01*
G01*
X106165000Y-68350000D01*
G75*
G02*
X106015000Y-68500000I-150000J0D01*
G01*
X105715000Y-68500000D01*
G75*
G02*
X105565000Y-68350000I0J150000D01*
G01*
X105565000Y-66700000D01*
G75*
G02*
X105715000Y-66550000I150000J0D01*
G01*
G37*
G36*
G01*
X106985000Y-66550000D02*
X107285000Y-66550000D01*
G75*
G02*
X107435000Y-66700000I0J-150000D01*
G01*
X107435000Y-68350000D01*
G75*
G02*
X107285000Y-68500000I-150000J0D01*
G01*
X106985000Y-68500000D01*
G75*
G02*
X106835000Y-68350000I0J150000D01*
G01*
X106835000Y-66700000D01*
G75*
G02*
X106985000Y-66550000I150000J0D01*
G01*
G37*
G36*
G01*
X108255000Y-66550000D02*
X108555000Y-66550000D01*
G75*
G02*
X108705000Y-66700000I0J-150000D01*
G01*
X108705000Y-68350000D01*
G75*
G02*
X108555000Y-68500000I-150000J0D01*
G01*
X108255000Y-68500000D01*
G75*
G02*
X108105000Y-68350000I0J150000D01*
G01*
X108105000Y-66700000D01*
G75*
G02*
X108255000Y-66550000I150000J0D01*
G01*
G37*
%TD*%
%TO.C,SHUNT*%
G36*
G01*
X95100000Y-78425001D02*
X95100000Y-75574999D01*
G75*
G02*
X95349999Y-75325000I249999J0D01*
G01*
X96075001Y-75325000D01*
G75*
G02*
X96325000Y-75574999I0J-249999D01*
G01*
X96325000Y-78425001D01*
G75*
G02*
X96075001Y-78675000I-249999J0D01*
G01*
X95349999Y-78675000D01*
G75*
G02*
X95100000Y-78425001I0J249999D01*
G01*
G37*
G36*
G01*
X89175000Y-78425001D02*
X89175000Y-75574999D01*
G75*
G02*
X89424999Y-75325000I249999J0D01*
G01*
X90150001Y-75325000D01*
G75*
G02*
X90400000Y-75574999I0J-249999D01*
G01*
X90400000Y-78425001D01*
G75*
G02*
X90150001Y-78675000I-249999J0D01*
G01*
X89424999Y-78675000D01*
G75*
G02*
X89175000Y-78425001I0J249999D01*
G01*
G37*
%TD*%
D17*
%TO.C,U3*%
X93850000Y-72000000D03*
X93850000Y-71050000D03*
X93850000Y-72950000D03*
X91650000Y-72950000D03*
X91650000Y-72000000D03*
X91650000Y-71050000D03*
%TD*%
D18*
%TO.C,volt*%
X87250000Y-63250000D03*
%TD*%
%TO.C,vin*%
X84400000Y-80800000D03*
%TD*%
%TO.C,reg*%
X84000000Y-60000000D03*
%TD*%
%TO.C,pwm*%
X102750000Y-68250000D03*
%TD*%
%TO.C,amp*%
X88800000Y-72000000D03*
%TD*%
D19*
%TO.C,J2*%
X70000000Y-63750000D03*
D20*
X70000000Y-67250000D03*
%TD*%
D21*
%TO.C,SW1*%
X112770000Y-87000000D03*
X112770000Y-82500000D03*
X120730000Y-82500000D03*
X120730000Y-87000000D03*
%TD*%
M02*
