%TF.GenerationSoftware,KiCad,Pcbnew,5.99.0+really5.1.10+dfsg1-1*%
%TF.CreationDate,2022-02-08T15:36:29-05:00*%
%TF.ProjectId,hotwire-lite,686f7477-6972-4652-9d6c-6974652e6b69,rev?*%
%TF.SameCoordinates,Original*%
%TF.FileFunction,Legend,Top*%
%TF.FilePolarity,Positive*%
%FSLAX46Y46*%
G04 Gerber Fmt 4.6, Leading zero omitted, Abs format (unit mm)*
G04 Created by KiCad (PCBNEW 5.99.0+really5.1.10+dfsg1-1) date 2022-02-08 15:36:29*
%MOMM*%
%LPD*%
G01*
G04 APERTURE LIST*
%ADD10C,0.150000*%
%ADD11C,0.300000*%
%ADD12C,0.120000*%
G04 APERTURE END LIST*
D10*
X66738095Y-60785714D02*
X66500000Y-60785714D01*
X66500000Y-59357142D01*
X66738095Y-59357142D01*
X67119047Y-60071428D02*
X67880952Y-60071428D01*
X68261904Y-60785714D02*
X68500000Y-60785714D01*
X68500000Y-59357142D01*
X68261904Y-59357142D01*
X66738095Y-71535714D02*
X66500000Y-71535714D01*
X66500000Y-70107142D01*
X66738095Y-70107142D01*
X67119047Y-70821428D02*
X67880952Y-70821428D01*
X67500000Y-71202380D02*
X67500000Y-70440476D01*
X68261904Y-71535714D02*
X68500000Y-71535714D01*
X68500000Y-70107142D01*
X68261904Y-70107142D01*
D11*
X83052142Y-88178571D02*
X83052142Y-86678571D01*
X83695000Y-88178571D02*
X83695000Y-87392857D01*
X83623571Y-87250000D01*
X83480714Y-87178571D01*
X83266428Y-87178571D01*
X83123571Y-87250000D01*
X83052142Y-87321428D01*
X84623571Y-88178571D02*
X84480714Y-88107142D01*
X84409285Y-88035714D01*
X84337857Y-87892857D01*
X84337857Y-87464285D01*
X84409285Y-87321428D01*
X84480714Y-87250000D01*
X84623571Y-87178571D01*
X84837857Y-87178571D01*
X84980714Y-87250000D01*
X85052142Y-87321428D01*
X85123571Y-87464285D01*
X85123571Y-87892857D01*
X85052142Y-88035714D01*
X84980714Y-88107142D01*
X84837857Y-88178571D01*
X84623571Y-88178571D01*
X85552142Y-87178571D02*
X86123571Y-87178571D01*
X85766428Y-86678571D02*
X85766428Y-87964285D01*
X85837857Y-88107142D01*
X85980714Y-88178571D01*
X86123571Y-88178571D01*
X86480714Y-87178571D02*
X86766428Y-88178571D01*
X87052142Y-87464285D01*
X87337857Y-88178571D01*
X87623571Y-87178571D01*
X88195000Y-88178571D02*
X88195000Y-87178571D01*
X88195000Y-86678571D02*
X88123571Y-86750000D01*
X88195000Y-86821428D01*
X88266428Y-86750000D01*
X88195000Y-86678571D01*
X88195000Y-86821428D01*
X88909285Y-88178571D02*
X88909285Y-87178571D01*
X88909285Y-87464285D02*
X88980714Y-87321428D01*
X89052142Y-87250000D01*
X89195000Y-87178571D01*
X89337857Y-87178571D01*
X90409285Y-88107142D02*
X90266428Y-88178571D01*
X89980714Y-88178571D01*
X89837857Y-88107142D01*
X89766428Y-87964285D01*
X89766428Y-87392857D01*
X89837857Y-87250000D01*
X89980714Y-87178571D01*
X90266428Y-87178571D01*
X90409285Y-87250000D01*
X90480714Y-87392857D01*
X90480714Y-87535714D01*
X89766428Y-87678571D01*
X92480714Y-88178571D02*
X92337857Y-88107142D01*
X92266428Y-87964285D01*
X92266428Y-86678571D01*
X93052142Y-88178571D02*
X93052142Y-87178571D01*
X93052142Y-86678571D02*
X92980714Y-86750000D01*
X93052142Y-86821428D01*
X93123571Y-86750000D01*
X93052142Y-86678571D01*
X93052142Y-86821428D01*
X93552142Y-87178571D02*
X94123571Y-87178571D01*
X93766428Y-86678571D02*
X93766428Y-87964285D01*
X93837857Y-88107142D01*
X93980714Y-88178571D01*
X94123571Y-88178571D01*
X95195000Y-88107142D02*
X95052142Y-88178571D01*
X94766428Y-88178571D01*
X94623571Y-88107142D01*
X94552142Y-87964285D01*
X94552142Y-87392857D01*
X94623571Y-87250000D01*
X94766428Y-87178571D01*
X95052142Y-87178571D01*
X95195000Y-87250000D01*
X95266428Y-87392857D01*
X95266428Y-87535714D01*
X94552142Y-87678571D01*
X96909285Y-87178571D02*
X97266428Y-88178571D01*
X97623571Y-87178571D01*
X98480714Y-86678571D02*
X98623571Y-86678571D01*
X98766428Y-86750000D01*
X98837857Y-86821428D01*
X98909285Y-86964285D01*
X98980714Y-87250000D01*
X98980714Y-87607142D01*
X98909285Y-87892857D01*
X98837857Y-88035714D01*
X98766428Y-88107142D01*
X98623571Y-88178571D01*
X98480714Y-88178571D01*
X98337857Y-88107142D01*
X98266428Y-88035714D01*
X98195000Y-87892857D01*
X98123571Y-87607142D01*
X98123571Y-87250000D01*
X98195000Y-86964285D01*
X98266428Y-86821428D01*
X98337857Y-86750000D01*
X98480714Y-86678571D01*
X99623571Y-88035714D02*
X99695000Y-88107142D01*
X99623571Y-88178571D01*
X99552142Y-88107142D01*
X99623571Y-88035714D01*
X99623571Y-88178571D01*
X101123571Y-88178571D02*
X100266428Y-88178571D01*
X100695000Y-88178571D02*
X100695000Y-86678571D01*
X100552142Y-86892857D01*
X100409285Y-87035714D01*
X100266428Y-87107142D01*
D10*
X118238095Y-77785714D02*
X118000000Y-77785714D01*
X118000000Y-76357142D01*
X118238095Y-76357142D01*
X118619047Y-77071428D02*
X119380952Y-77071428D01*
X119000000Y-77452380D02*
X119000000Y-76690476D01*
X119761904Y-77785714D02*
X120000000Y-77785714D01*
X120000000Y-76357142D01*
X119761904Y-76357142D01*
X118238095Y-75285714D02*
X118000000Y-75285714D01*
X118000000Y-73857142D01*
X118238095Y-73857142D01*
X118619047Y-74571428D02*
X119380952Y-74571428D01*
X119761904Y-75285714D02*
X120000000Y-75285714D01*
X120000000Y-73857142D01*
X119761904Y-73857142D01*
X116616785Y-67952380D02*
X116616785Y-68761904D01*
X116664404Y-68857142D01*
X116712023Y-68904761D01*
X116807261Y-68952380D01*
X116997738Y-68952380D01*
X117092976Y-68904761D01*
X117140595Y-68857142D01*
X117188214Y-68761904D01*
X117188214Y-67952380D01*
X117664404Y-68952380D02*
X117664404Y-67952380D01*
X118045357Y-67952380D01*
X118140595Y-68000000D01*
X118188214Y-68047619D01*
X118235833Y-68142857D01*
X118235833Y-68285714D01*
X118188214Y-68380952D01*
X118140595Y-68428571D01*
X118045357Y-68476190D01*
X117664404Y-68476190D01*
X118664404Y-68952380D02*
X118664404Y-67952380D01*
X118902500Y-67952380D01*
X119045357Y-68000000D01*
X119140595Y-68095238D01*
X119188214Y-68190476D01*
X119235833Y-68380952D01*
X119235833Y-68523809D01*
X119188214Y-68714285D01*
X119140595Y-68809523D01*
X119045357Y-68904761D01*
X118902500Y-68952380D01*
X118664404Y-68952380D01*
X119664404Y-68952380D02*
X119664404Y-67952380D01*
X118759642Y-66452380D02*
X118426309Y-65976190D01*
X118188214Y-66452380D02*
X118188214Y-65452380D01*
X118569166Y-65452380D01*
X118664404Y-65500000D01*
X118712023Y-65547619D01*
X118759642Y-65642857D01*
X118759642Y-65785714D01*
X118712023Y-65880952D01*
X118664404Y-65928571D01*
X118569166Y-65976190D01*
X118188214Y-65976190D01*
X119092976Y-65452380D02*
X119759642Y-66452380D01*
X119759642Y-65452380D02*
X119092976Y-66452380D01*
X118283452Y-62952380D02*
X118854880Y-62952380D01*
X118569166Y-63952380D02*
X118569166Y-62952380D01*
X119092976Y-62952380D02*
X119759642Y-63952380D01*
X119759642Y-62952380D02*
X119092976Y-63952380D01*
X117616785Y-60500000D02*
X117521547Y-60452380D01*
X117378690Y-60452380D01*
X117235833Y-60500000D01*
X117140595Y-60595238D01*
X117092976Y-60690476D01*
X117045357Y-60880952D01*
X117045357Y-61023809D01*
X117092976Y-61214285D01*
X117140595Y-61309523D01*
X117235833Y-61404761D01*
X117378690Y-61452380D01*
X117473928Y-61452380D01*
X117616785Y-61404761D01*
X117664404Y-61357142D01*
X117664404Y-61023809D01*
X117473928Y-61023809D01*
X118092976Y-61452380D02*
X118092976Y-60452380D01*
X118664404Y-61452380D01*
X118664404Y-60452380D01*
X119140595Y-61452380D02*
X119140595Y-60452380D01*
X119378690Y-60452380D01*
X119521547Y-60500000D01*
X119616785Y-60595238D01*
X119664404Y-60690476D01*
X119712023Y-60880952D01*
X119712023Y-61023809D01*
X119664404Y-61214285D01*
X119616785Y-61309523D01*
X119521547Y-61404761D01*
X119378690Y-61452380D01*
X119140595Y-61452380D01*
D11*
X108285714Y-62428571D02*
X108285714Y-60928571D01*
X108285714Y-61642857D02*
X109142857Y-61642857D01*
X109142857Y-62428571D02*
X109142857Y-60928571D01*
X110142857Y-60928571D02*
X110428571Y-60928571D01*
X110571428Y-61000000D01*
X110714285Y-61142857D01*
X110785714Y-61428571D01*
X110785714Y-61928571D01*
X110714285Y-62214285D01*
X110571428Y-62357142D01*
X110428571Y-62428571D01*
X110142857Y-62428571D01*
X110000000Y-62357142D01*
X109857142Y-62214285D01*
X109785714Y-61928571D01*
X109785714Y-61428571D01*
X109857142Y-61142857D01*
X110000000Y-61000000D01*
X110142857Y-60928571D01*
X111214285Y-60928571D02*
X112071428Y-60928571D01*
X111642857Y-62428571D02*
X111642857Y-60928571D01*
X113714285Y-62285714D02*
X113785714Y-62357142D01*
X113714285Y-62428571D01*
X113642857Y-62357142D01*
X113714285Y-62285714D01*
X113714285Y-62428571D01*
X113714285Y-61500000D02*
X113785714Y-61571428D01*
X113714285Y-61642857D01*
X113642857Y-61571428D01*
X113714285Y-61500000D01*
X113714285Y-61642857D01*
X114285714Y-63000000D02*
X114357142Y-62928571D01*
X114500000Y-62714285D01*
X114571428Y-62571428D01*
X114642857Y-62357142D01*
X114714285Y-62000000D01*
X114714285Y-61714285D01*
X114642857Y-61357142D01*
X114571428Y-61142857D01*
X114500000Y-61000000D01*
X114357142Y-60785714D01*
X114285714Y-60714285D01*
D12*
%TO.C,C1*%
X77511252Y-71485000D02*
X76988748Y-71485000D01*
X77511252Y-70015000D02*
X76988748Y-70015000D01*
%TO.C,R6*%
X101772936Y-66985000D02*
X102227064Y-66985000D01*
X101772936Y-65515000D02*
X102227064Y-65515000D01*
%TO.C,R3*%
X85665000Y-73060436D02*
X85665000Y-73514564D01*
X87135000Y-73060436D02*
X87135000Y-73514564D01*
%TO.C,J3*%
X120670000Y-69950000D02*
X123330000Y-69950000D01*
X120670000Y-62270000D02*
X120670000Y-69950000D01*
X123330000Y-62270000D02*
X123330000Y-69950000D01*
X120670000Y-62270000D02*
X123330000Y-62270000D01*
X120670000Y-61000000D02*
X120670000Y-59670000D01*
X120670000Y-59670000D02*
X122000000Y-59670000D01*
%TO.C,J4*%
X123330000Y-73130000D02*
X120670000Y-73130000D01*
X123330000Y-75730000D02*
X123330000Y-73130000D01*
X120670000Y-75730000D02*
X120670000Y-73130000D01*
X123330000Y-75730000D02*
X120670000Y-75730000D01*
X123330000Y-77000000D02*
X123330000Y-78330000D01*
X123330000Y-78330000D02*
X122000000Y-78330000D01*
%TO.C,U1*%
X77650000Y-62340000D02*
X83660000Y-62340000D01*
X79900000Y-69160000D02*
X83660000Y-69160000D01*
X83660000Y-62340000D02*
X83660000Y-63600000D01*
X83660000Y-69160000D02*
X83660000Y-67900000D01*
%TO.C,R4*%
X101977064Y-63735000D02*
X101522936Y-63735000D01*
X101977064Y-62265000D02*
X101522936Y-62265000D01*
%TO.C,R5*%
X95765000Y-67977064D02*
X95765000Y-67522936D01*
X97235000Y-67977064D02*
X97235000Y-67522936D01*
%TO.C,R2*%
X85135000Y-71172936D02*
X85135000Y-71627064D01*
X83665000Y-71172936D02*
X83665000Y-71627064D01*
%TO.C,R1*%
X81665000Y-71627064D02*
X81665000Y-71172936D01*
X83135000Y-71627064D02*
X83135000Y-71172936D01*
%TO.C,D1*%
X100750000Y-61460000D02*
X103435000Y-61460000D01*
X103435000Y-61460000D02*
X103435000Y-59540000D01*
X103435000Y-59540000D02*
X100750000Y-59540000D01*
%TO.C,C4*%
X96988748Y-70265000D02*
X97511252Y-70265000D01*
X96988748Y-71735000D02*
X97511252Y-71735000D01*
%TO.C,C3*%
X95988748Y-62265000D02*
X96511252Y-62265000D01*
X95988748Y-63735000D02*
X96511252Y-63735000D01*
%TO.C,C2*%
X75015000Y-63761252D02*
X75015000Y-63238748D01*
X76485000Y-63761252D02*
X76485000Y-63238748D01*
%TO.C,J1*%
X69740000Y-73740000D02*
X69740000Y-75640000D01*
X71080000Y-73740000D02*
X69740000Y-73740000D01*
X65890000Y-76440000D02*
X69500000Y-76440000D01*
X80810000Y-85560000D02*
X80810000Y-76440000D01*
X72500000Y-76440000D02*
X75500000Y-76440000D01*
X78500000Y-76440000D02*
X80810000Y-76440000D01*
X78500000Y-85560000D02*
X80810000Y-85560000D01*
X72500000Y-85560000D02*
X75500000Y-85560000D01*
X65890000Y-85560000D02*
X69500000Y-85560000D01*
X65890000Y-85560000D02*
X65890000Y-76440000D01*
X69200000Y-85560000D02*
X69200000Y-76440000D01*
X69200000Y-78000000D02*
X74000000Y-78000000D01*
X69200000Y-84000000D02*
X74000000Y-84000000D01*
X74000000Y-78000000D02*
G75*
G02*
X74000000Y-84000000I0J-3000000D01*
G01*
%TO.C,U2*%
X93560000Y-65500000D02*
X93560000Y-62050000D01*
X93560000Y-65500000D02*
X93560000Y-67450000D01*
X88440000Y-65500000D02*
X88440000Y-63550000D01*
X88440000Y-65500000D02*
X88440000Y-67450000D01*
%TO.C,Q1*%
X109060000Y-70000000D02*
X109060000Y-66550000D01*
X109060000Y-70000000D02*
X109060000Y-71950000D01*
X103940000Y-70000000D02*
X103940000Y-68050000D01*
X103940000Y-70000000D02*
X103940000Y-71950000D01*
%TO.C,SHUNT*%
X90572936Y-78710000D02*
X94927064Y-78710000D01*
X90572936Y-75290000D02*
X94927064Y-75290000D01*
%TO.C,U3*%
X93650000Y-70390000D02*
X91200000Y-70390000D01*
X91850000Y-73610000D02*
X93650000Y-73610000D01*
%TO.C,volt*%
X87950000Y-63250000D02*
G75*
G03*
X87950000Y-63250000I-700000J0D01*
G01*
%TO.C,vin*%
X85100000Y-80800000D02*
G75*
G03*
X85100000Y-80800000I-700000J0D01*
G01*
%TO.C,reg*%
X84700000Y-60000000D02*
G75*
G03*
X84700000Y-60000000I-700000J0D01*
G01*
%TO.C,pwm*%
X103450000Y-68250000D02*
G75*
G03*
X103450000Y-68250000I-700000J0D01*
G01*
%TO.C,amp*%
X89500000Y-72000000D02*
G75*
G03*
X89500000Y-72000000I-700000J0D01*
G01*
%TO.C,J2*%
X66100000Y-61350000D02*
X66100000Y-62850000D01*
X67840000Y-61350000D02*
X66100000Y-61350000D01*
X73460000Y-69410000D02*
X66340000Y-69410000D01*
X73460000Y-61590000D02*
X66340000Y-61590000D01*
X66340000Y-61590000D02*
X66340000Y-69410000D01*
X73460000Y-61590000D02*
X73460000Y-69410000D01*
X67900000Y-61590000D02*
X67900000Y-69410000D01*
X71555000Y-67250000D02*
G75*
G03*
X71555000Y-67250000I-1555000J0D01*
G01*
X68568615Y-64357587D02*
G75*
G02*
X68445000Y-63750000I1431385J607587D01*
G01*
X70607742Y-65182109D02*
G75*
G02*
X69392000Y-65182000I-607742J1432109D01*
G01*
X71432109Y-63142258D02*
G75*
G02*
X71432000Y-64358000I-1432109J-607742D01*
G01*
X69392258Y-62317891D02*
G75*
G02*
X70608000Y-62318000I607742J-1432109D01*
G01*
X68444508Y-63777011D02*
G75*
G02*
X68568000Y-63142000I1555492J27011D01*
G01*
%TO.C,SW1*%
X113520000Y-87980000D02*
X119980000Y-87980000D01*
X113520000Y-83450000D02*
X113520000Y-86050000D01*
X113520000Y-81520000D02*
X119980000Y-81520000D01*
X119980000Y-83450000D02*
X119980000Y-86050000D01*
X113520000Y-81550000D02*
X113520000Y-81520000D01*
X113520000Y-87980000D02*
X113520000Y-87950000D01*
X119980000Y-87980000D02*
X119980000Y-87950000D01*
X119980000Y-81520000D02*
X119980000Y-81550000D01*
%TO.C,C1*%
D10*
X76333333Y-72857142D02*
X76285714Y-72904761D01*
X76142857Y-72952380D01*
X76047619Y-72952380D01*
X75904761Y-72904761D01*
X75809523Y-72809523D01*
X75761904Y-72714285D01*
X75714285Y-72523809D01*
X75714285Y-72380952D01*
X75761904Y-72190476D01*
X75809523Y-72095238D01*
X75904761Y-72000000D01*
X76047619Y-71952380D01*
X76142857Y-71952380D01*
X76285714Y-72000000D01*
X76333333Y-72047619D01*
X77285714Y-72952380D02*
X76714285Y-72952380D01*
X77000000Y-72952380D02*
X77000000Y-71952380D01*
X76904761Y-72095238D01*
X76809523Y-72190476D01*
X76714285Y-72238095D01*
%TO.C,R6*%
X99083333Y-66702380D02*
X98750000Y-66226190D01*
X98511904Y-66702380D02*
X98511904Y-65702380D01*
X98892857Y-65702380D01*
X98988095Y-65750000D01*
X99035714Y-65797619D01*
X99083333Y-65892857D01*
X99083333Y-66035714D01*
X99035714Y-66130952D01*
X98988095Y-66178571D01*
X98892857Y-66226190D01*
X98511904Y-66226190D01*
X99940476Y-65702380D02*
X99750000Y-65702380D01*
X99654761Y-65750000D01*
X99607142Y-65797619D01*
X99511904Y-65940476D01*
X99464285Y-66130952D01*
X99464285Y-66511904D01*
X99511904Y-66607142D01*
X99559523Y-66654761D01*
X99654761Y-66702380D01*
X99845238Y-66702380D01*
X99940476Y-66654761D01*
X99988095Y-66607142D01*
X100035714Y-66511904D01*
X100035714Y-66273809D01*
X99988095Y-66178571D01*
X99940476Y-66130952D01*
X99845238Y-66083333D01*
X99654761Y-66083333D01*
X99559523Y-66130952D01*
X99511904Y-66178571D01*
X99464285Y-66273809D01*
%TO.C,R3*%
X86852380Y-76166666D02*
X86376190Y-76500000D01*
X86852380Y-76738095D02*
X85852380Y-76738095D01*
X85852380Y-76357142D01*
X85900000Y-76261904D01*
X85947619Y-76214285D01*
X86042857Y-76166666D01*
X86185714Y-76166666D01*
X86280952Y-76214285D01*
X86328571Y-76261904D01*
X86376190Y-76357142D01*
X86376190Y-76738095D01*
X85852380Y-75833333D02*
X85852380Y-75214285D01*
X86233333Y-75547619D01*
X86233333Y-75404761D01*
X86280952Y-75309523D01*
X86328571Y-75261904D01*
X86423809Y-75214285D01*
X86661904Y-75214285D01*
X86757142Y-75261904D01*
X86804761Y-75309523D01*
X86852380Y-75404761D01*
X86852380Y-75690476D01*
X86804761Y-75785714D01*
X86757142Y-75833333D01*
%TO.C,J3*%
X121666666Y-70702380D02*
X121666666Y-71416666D01*
X121619047Y-71559523D01*
X121523809Y-71654761D01*
X121380952Y-71702380D01*
X121285714Y-71702380D01*
X122047619Y-70702380D02*
X122666666Y-70702380D01*
X122333333Y-71083333D01*
X122476190Y-71083333D01*
X122571428Y-71130952D01*
X122619047Y-71178571D01*
X122666666Y-71273809D01*
X122666666Y-71511904D01*
X122619047Y-71607142D01*
X122571428Y-71654761D01*
X122476190Y-71702380D01*
X122190476Y-71702380D01*
X122095238Y-71654761D01*
X122047619Y-71607142D01*
%TO.C,J4*%
X121666666Y-79202380D02*
X121666666Y-79916666D01*
X121619047Y-80059523D01*
X121523809Y-80154761D01*
X121380952Y-80202380D01*
X121285714Y-80202380D01*
X122571428Y-79535714D02*
X122571428Y-80202380D01*
X122333333Y-79154761D02*
X122095238Y-79869047D01*
X122714285Y-79869047D01*
%TO.C,U1*%
X77988095Y-60952380D02*
X77988095Y-61761904D01*
X78035714Y-61857142D01*
X78083333Y-61904761D01*
X78178571Y-61952380D01*
X78369047Y-61952380D01*
X78464285Y-61904761D01*
X78511904Y-61857142D01*
X78559523Y-61761904D01*
X78559523Y-60952380D01*
X79559523Y-61952380D02*
X78988095Y-61952380D01*
X79273809Y-61952380D02*
X79273809Y-60952380D01*
X79178571Y-61095238D01*
X79083333Y-61190476D01*
X78988095Y-61238095D01*
%TO.C,R4*%
X104583333Y-63452380D02*
X104250000Y-62976190D01*
X104011904Y-63452380D02*
X104011904Y-62452380D01*
X104392857Y-62452380D01*
X104488095Y-62500000D01*
X104535714Y-62547619D01*
X104583333Y-62642857D01*
X104583333Y-62785714D01*
X104535714Y-62880952D01*
X104488095Y-62928571D01*
X104392857Y-62976190D01*
X104011904Y-62976190D01*
X105440476Y-62785714D02*
X105440476Y-63452380D01*
X105202380Y-62404761D02*
X104964285Y-63119047D01*
X105583333Y-63119047D01*
%TO.C,R5*%
X96333333Y-65952380D02*
X96000000Y-65476190D01*
X95761904Y-65952380D02*
X95761904Y-64952380D01*
X96142857Y-64952380D01*
X96238095Y-65000000D01*
X96285714Y-65047619D01*
X96333333Y-65142857D01*
X96333333Y-65285714D01*
X96285714Y-65380952D01*
X96238095Y-65428571D01*
X96142857Y-65476190D01*
X95761904Y-65476190D01*
X97238095Y-64952380D02*
X96761904Y-64952380D01*
X96714285Y-65428571D01*
X96761904Y-65380952D01*
X96857142Y-65333333D01*
X97095238Y-65333333D01*
X97190476Y-65380952D01*
X97238095Y-65428571D01*
X97285714Y-65523809D01*
X97285714Y-65761904D01*
X97238095Y-65857142D01*
X97190476Y-65904761D01*
X97095238Y-65952380D01*
X96857142Y-65952380D01*
X96761904Y-65904761D01*
X96714285Y-65857142D01*
%TO.C,R2*%
X84952380Y-74366666D02*
X84476190Y-74700000D01*
X84952380Y-74938095D02*
X83952380Y-74938095D01*
X83952380Y-74557142D01*
X84000000Y-74461904D01*
X84047619Y-74414285D01*
X84142857Y-74366666D01*
X84285714Y-74366666D01*
X84380952Y-74414285D01*
X84428571Y-74461904D01*
X84476190Y-74557142D01*
X84476190Y-74938095D01*
X84047619Y-73985714D02*
X84000000Y-73938095D01*
X83952380Y-73842857D01*
X83952380Y-73604761D01*
X84000000Y-73509523D01*
X84047619Y-73461904D01*
X84142857Y-73414285D01*
X84238095Y-73414285D01*
X84380952Y-73461904D01*
X84952380Y-74033333D01*
X84952380Y-73414285D01*
%TO.C,R1*%
X81252380Y-71566666D02*
X80776190Y-71900000D01*
X81252380Y-72138095D02*
X80252380Y-72138095D01*
X80252380Y-71757142D01*
X80300000Y-71661904D01*
X80347619Y-71614285D01*
X80442857Y-71566666D01*
X80585714Y-71566666D01*
X80680952Y-71614285D01*
X80728571Y-71661904D01*
X80776190Y-71757142D01*
X80776190Y-72138095D01*
X81252380Y-70614285D02*
X81252380Y-71185714D01*
X81252380Y-70900000D02*
X80252380Y-70900000D01*
X80395238Y-70995238D01*
X80490476Y-71090476D01*
X80538095Y-71185714D01*
%TO.C,D1*%
X104261904Y-60952380D02*
X104261904Y-59952380D01*
X104500000Y-59952380D01*
X104642857Y-60000000D01*
X104738095Y-60095238D01*
X104785714Y-60190476D01*
X104833333Y-60380952D01*
X104833333Y-60523809D01*
X104785714Y-60714285D01*
X104738095Y-60809523D01*
X104642857Y-60904761D01*
X104500000Y-60952380D01*
X104261904Y-60952380D01*
X105785714Y-60952380D02*
X105214285Y-60952380D01*
X105500000Y-60952380D02*
X105500000Y-59952380D01*
X105404761Y-60095238D01*
X105309523Y-60190476D01*
X105214285Y-60238095D01*
%TO.C,C4*%
X101107142Y-71166666D02*
X101154761Y-71214285D01*
X101202380Y-71357142D01*
X101202380Y-71452380D01*
X101154761Y-71595238D01*
X101059523Y-71690476D01*
X100964285Y-71738095D01*
X100773809Y-71785714D01*
X100630952Y-71785714D01*
X100440476Y-71738095D01*
X100345238Y-71690476D01*
X100250000Y-71595238D01*
X100202380Y-71452380D01*
X100202380Y-71357142D01*
X100250000Y-71214285D01*
X100297619Y-71166666D01*
X100535714Y-70309523D02*
X101202380Y-70309523D01*
X100154761Y-70547619D02*
X100869047Y-70785714D01*
X100869047Y-70166666D01*
%TO.C,C3*%
X97083333Y-61677142D02*
X97035714Y-61724761D01*
X96892857Y-61772380D01*
X96797619Y-61772380D01*
X96654761Y-61724761D01*
X96559523Y-61629523D01*
X96511904Y-61534285D01*
X96464285Y-61343809D01*
X96464285Y-61200952D01*
X96511904Y-61010476D01*
X96559523Y-60915238D01*
X96654761Y-60820000D01*
X96797619Y-60772380D01*
X96892857Y-60772380D01*
X97035714Y-60820000D01*
X97083333Y-60867619D01*
X97416666Y-60772380D02*
X98035714Y-60772380D01*
X97702380Y-61153333D01*
X97845238Y-61153333D01*
X97940476Y-61200952D01*
X97988095Y-61248571D01*
X98035714Y-61343809D01*
X98035714Y-61581904D01*
X97988095Y-61677142D01*
X97940476Y-61724761D01*
X97845238Y-61772380D01*
X97559523Y-61772380D01*
X97464285Y-61724761D01*
X97416666Y-61677142D01*
%TO.C,C2*%
X76107142Y-66416666D02*
X76154761Y-66464285D01*
X76202380Y-66607142D01*
X76202380Y-66702380D01*
X76154761Y-66845238D01*
X76059523Y-66940476D01*
X75964285Y-66988095D01*
X75773809Y-67035714D01*
X75630952Y-67035714D01*
X75440476Y-66988095D01*
X75345238Y-66940476D01*
X75250000Y-66845238D01*
X75202380Y-66702380D01*
X75202380Y-66607142D01*
X75250000Y-66464285D01*
X75297619Y-66416666D01*
X75297619Y-66035714D02*
X75250000Y-65988095D01*
X75202380Y-65892857D01*
X75202380Y-65654761D01*
X75250000Y-65559523D01*
X75297619Y-65511904D01*
X75392857Y-65464285D01*
X75488095Y-65464285D01*
X75630952Y-65511904D01*
X76202380Y-66083333D01*
X76202380Y-65464285D01*
%TO.C,J1*%
X67166666Y-86952380D02*
X67166666Y-87666666D01*
X67119047Y-87809523D01*
X67023809Y-87904761D01*
X66880952Y-87952380D01*
X66785714Y-87952380D01*
X68166666Y-87952380D02*
X67595238Y-87952380D01*
X67880952Y-87952380D02*
X67880952Y-86952380D01*
X67785714Y-87095238D01*
X67690476Y-87190476D01*
X67595238Y-87238095D01*
%TO.C,U2*%
X94252380Y-66161904D02*
X95061904Y-66161904D01*
X95157142Y-66114285D01*
X95204761Y-66066666D01*
X95252380Y-65971428D01*
X95252380Y-65780952D01*
X95204761Y-65685714D01*
X95157142Y-65638095D01*
X95061904Y-65590476D01*
X94252380Y-65590476D01*
X94347619Y-65161904D02*
X94300000Y-65114285D01*
X94252380Y-65019047D01*
X94252380Y-64780952D01*
X94300000Y-64685714D01*
X94347619Y-64638095D01*
X94442857Y-64590476D01*
X94538095Y-64590476D01*
X94680952Y-64638095D01*
X95252380Y-65209523D01*
X95252380Y-64590476D01*
%TO.C,Q1*%
X110547619Y-72095238D02*
X110500000Y-72190476D01*
X110404761Y-72285714D01*
X110261904Y-72428571D01*
X110214285Y-72523809D01*
X110214285Y-72619047D01*
X110452380Y-72571428D02*
X110404761Y-72666666D01*
X110309523Y-72761904D01*
X110119047Y-72809523D01*
X109785714Y-72809523D01*
X109595238Y-72761904D01*
X109500000Y-72666666D01*
X109452380Y-72571428D01*
X109452380Y-72380952D01*
X109500000Y-72285714D01*
X109595238Y-72190476D01*
X109785714Y-72142857D01*
X110119047Y-72142857D01*
X110309523Y-72190476D01*
X110404761Y-72285714D01*
X110452380Y-72380952D01*
X110452380Y-72571428D01*
X110452380Y-71190476D02*
X110452380Y-71761904D01*
X110452380Y-71476190D02*
X109452380Y-71476190D01*
X109595238Y-71571428D01*
X109690476Y-71666666D01*
X109738095Y-71761904D01*
%TO.C,SHUNT*%
X90511904Y-80154761D02*
X90654761Y-80202380D01*
X90892857Y-80202380D01*
X90988095Y-80154761D01*
X91035714Y-80107142D01*
X91083333Y-80011904D01*
X91083333Y-79916666D01*
X91035714Y-79821428D01*
X90988095Y-79773809D01*
X90892857Y-79726190D01*
X90702380Y-79678571D01*
X90607142Y-79630952D01*
X90559523Y-79583333D01*
X90511904Y-79488095D01*
X90511904Y-79392857D01*
X90559523Y-79297619D01*
X90607142Y-79250000D01*
X90702380Y-79202380D01*
X90940476Y-79202380D01*
X91083333Y-79250000D01*
X91511904Y-80202380D02*
X91511904Y-79202380D01*
X91511904Y-79678571D02*
X92083333Y-79678571D01*
X92083333Y-80202380D02*
X92083333Y-79202380D01*
X92559523Y-79202380D02*
X92559523Y-80011904D01*
X92607142Y-80107142D01*
X92654761Y-80154761D01*
X92750000Y-80202380D01*
X92940476Y-80202380D01*
X93035714Y-80154761D01*
X93083333Y-80107142D01*
X93130952Y-80011904D01*
X93130952Y-79202380D01*
X93607142Y-80202380D02*
X93607142Y-79202380D01*
X94178571Y-80202380D01*
X94178571Y-79202380D01*
X94511904Y-79202380D02*
X95083333Y-79202380D01*
X94797619Y-80202380D02*
X94797619Y-79202380D01*
%TO.C,U3*%
X91988095Y-73952380D02*
X91988095Y-74761904D01*
X92035714Y-74857142D01*
X92083333Y-74904761D01*
X92178571Y-74952380D01*
X92369047Y-74952380D01*
X92464285Y-74904761D01*
X92511904Y-74857142D01*
X92559523Y-74761904D01*
X92559523Y-73952380D01*
X92940476Y-73952380D02*
X93559523Y-73952380D01*
X93226190Y-74333333D01*
X93369047Y-74333333D01*
X93464285Y-74380952D01*
X93511904Y-74428571D01*
X93559523Y-74523809D01*
X93559523Y-74761904D01*
X93511904Y-74857142D01*
X93464285Y-74904761D01*
X93369047Y-74952380D01*
X93083333Y-74952380D01*
X92988095Y-74904761D01*
X92940476Y-74857142D01*
%TO.C,volt*%
X86985714Y-67038095D02*
X87652380Y-66800000D01*
X86985714Y-66561904D01*
X87652380Y-66038095D02*
X87604761Y-66133333D01*
X87557142Y-66180952D01*
X87461904Y-66228571D01*
X87176190Y-66228571D01*
X87080952Y-66180952D01*
X87033333Y-66133333D01*
X86985714Y-66038095D01*
X86985714Y-65895238D01*
X87033333Y-65800000D01*
X87080952Y-65752380D01*
X87176190Y-65704761D01*
X87461904Y-65704761D01*
X87557142Y-65752380D01*
X87604761Y-65800000D01*
X87652380Y-65895238D01*
X87652380Y-66038095D01*
X87652380Y-65133333D02*
X87604761Y-65228571D01*
X87509523Y-65276190D01*
X86652380Y-65276190D01*
X86985714Y-64895238D02*
X86985714Y-64514285D01*
X86652380Y-64752380D02*
X87509523Y-64752380D01*
X87604761Y-64704761D01*
X87652380Y-64609523D01*
X87652380Y-64514285D01*
%TO.C,vin*%
X83471428Y-82335714D02*
X83709523Y-83002380D01*
X83947619Y-82335714D01*
X84328571Y-83002380D02*
X84328571Y-82335714D01*
X84328571Y-82002380D02*
X84280952Y-82050000D01*
X84328571Y-82097619D01*
X84376190Y-82050000D01*
X84328571Y-82002380D01*
X84328571Y-82097619D01*
X84804761Y-82335714D02*
X84804761Y-83002380D01*
X84804761Y-82430952D02*
X84852380Y-82383333D01*
X84947619Y-82335714D01*
X85090476Y-82335714D01*
X85185714Y-82383333D01*
X85233333Y-82478571D01*
X85233333Y-83002380D01*
%TO.C,reg*%
X80797619Y-60452380D02*
X80797619Y-59785714D01*
X80797619Y-59976190D02*
X80845238Y-59880952D01*
X80892857Y-59833333D01*
X80988095Y-59785714D01*
X81083333Y-59785714D01*
X81797619Y-60404761D02*
X81702380Y-60452380D01*
X81511904Y-60452380D01*
X81416666Y-60404761D01*
X81369047Y-60309523D01*
X81369047Y-59928571D01*
X81416666Y-59833333D01*
X81511904Y-59785714D01*
X81702380Y-59785714D01*
X81797619Y-59833333D01*
X81845238Y-59928571D01*
X81845238Y-60023809D01*
X81369047Y-60119047D01*
X82702380Y-59785714D02*
X82702380Y-60595238D01*
X82654761Y-60690476D01*
X82607142Y-60738095D01*
X82511904Y-60785714D01*
X82369047Y-60785714D01*
X82273809Y-60738095D01*
X82702380Y-60404761D02*
X82607142Y-60452380D01*
X82416666Y-60452380D01*
X82321428Y-60404761D01*
X82273809Y-60357142D01*
X82226190Y-60261904D01*
X82226190Y-59976190D01*
X82273809Y-59880952D01*
X82321428Y-59833333D01*
X82416666Y-59785714D01*
X82607142Y-59785714D01*
X82702380Y-59833333D01*
%TO.C,pwm*%
X102285714Y-72404761D02*
X103285714Y-72404761D01*
X102333333Y-72404761D02*
X102285714Y-72309523D01*
X102285714Y-72119047D01*
X102333333Y-72023809D01*
X102380952Y-71976190D01*
X102476190Y-71928571D01*
X102761904Y-71928571D01*
X102857142Y-71976190D01*
X102904761Y-72023809D01*
X102952380Y-72119047D01*
X102952380Y-72309523D01*
X102904761Y-72404761D01*
X102285714Y-71595238D02*
X102952380Y-71404761D01*
X102476190Y-71214285D01*
X102952380Y-71023809D01*
X102285714Y-70833333D01*
X102952380Y-70452380D02*
X102285714Y-70452380D01*
X102380952Y-70452380D02*
X102333333Y-70404761D01*
X102285714Y-70309523D01*
X102285714Y-70166666D01*
X102333333Y-70071428D01*
X102428571Y-70023809D01*
X102952380Y-70023809D01*
X102428571Y-70023809D02*
X102333333Y-69976190D01*
X102285714Y-69880952D01*
X102285714Y-69738095D01*
X102333333Y-69642857D01*
X102428571Y-69595238D01*
X102952380Y-69595238D01*
%TO.C,amp*%
X88252380Y-75704761D02*
X87728571Y-75704761D01*
X87633333Y-75752380D01*
X87585714Y-75847619D01*
X87585714Y-76038095D01*
X87633333Y-76133333D01*
X88204761Y-75704761D02*
X88252380Y-75800000D01*
X88252380Y-76038095D01*
X88204761Y-76133333D01*
X88109523Y-76180952D01*
X88014285Y-76180952D01*
X87919047Y-76133333D01*
X87871428Y-76038095D01*
X87871428Y-75800000D01*
X87823809Y-75704761D01*
X88252380Y-75228571D02*
X87585714Y-75228571D01*
X87680952Y-75228571D02*
X87633333Y-75180952D01*
X87585714Y-75085714D01*
X87585714Y-74942857D01*
X87633333Y-74847619D01*
X87728571Y-74800000D01*
X88252380Y-74800000D01*
X87728571Y-74800000D02*
X87633333Y-74752380D01*
X87585714Y-74657142D01*
X87585714Y-74514285D01*
X87633333Y-74419047D01*
X87728571Y-74371428D01*
X88252380Y-74371428D01*
X87585714Y-73895238D02*
X88585714Y-73895238D01*
X87633333Y-73895238D02*
X87585714Y-73800000D01*
X87585714Y-73609523D01*
X87633333Y-73514285D01*
X87680952Y-73466666D01*
X87776190Y-73419047D01*
X88061904Y-73419047D01*
X88157142Y-73466666D01*
X88204761Y-73514285D01*
X88252380Y-73609523D01*
X88252380Y-73800000D01*
X88204761Y-73895238D01*
%TO.C,J2*%
X72166666Y-70202380D02*
X72166666Y-70916666D01*
X72119047Y-71059523D01*
X72023809Y-71154761D01*
X71880952Y-71202380D01*
X71785714Y-71202380D01*
X72595238Y-70297619D02*
X72642857Y-70250000D01*
X72738095Y-70202380D01*
X72976190Y-70202380D01*
X73071428Y-70250000D01*
X73119047Y-70297619D01*
X73166666Y-70392857D01*
X73166666Y-70488095D01*
X73119047Y-70630952D01*
X72547619Y-71202380D01*
X73166666Y-71202380D01*
%TO.C,SW1*%
X115416666Y-81104761D02*
X115559523Y-81152380D01*
X115797619Y-81152380D01*
X115892857Y-81104761D01*
X115940476Y-81057142D01*
X115988095Y-80961904D01*
X115988095Y-80866666D01*
X115940476Y-80771428D01*
X115892857Y-80723809D01*
X115797619Y-80676190D01*
X115607142Y-80628571D01*
X115511904Y-80580952D01*
X115464285Y-80533333D01*
X115416666Y-80438095D01*
X115416666Y-80342857D01*
X115464285Y-80247619D01*
X115511904Y-80200000D01*
X115607142Y-80152380D01*
X115845238Y-80152380D01*
X115988095Y-80200000D01*
X116321428Y-80152380D02*
X116559523Y-81152380D01*
X116750000Y-80438095D01*
X116940476Y-81152380D01*
X117178571Y-80152380D01*
X118083333Y-81152380D02*
X117511904Y-81152380D01*
X117797619Y-81152380D02*
X117797619Y-80152380D01*
X117702380Y-80295238D01*
X117607142Y-80390476D01*
X117511904Y-80438095D01*
%TD*%
M02*
