M48
; DRILL file {KiCad 5.99.0+really5.1.10+dfsg1-1} date Tue Feb  8 15:36:33 2022
; FORMAT={-:-/ absolute / inch / decimal}
; #@! TF.CreationDate,2022-02-08T15:36:33-05:00
; #@! TF.GenerationSoftware,Kicad,Pcbnew,5.99.0+really5.1.10+dfsg1-1
; #@! TF.FileFunction,Plated,1,2,PTH
FMAT,2
INCH
T1C0.0157
T2C0.0394
T3C0.0472
%
G90
G05
T1
X2.9429Y-2.7854
X2.9921Y-2.4016
X3.0315Y-3.2972
X3.1299Y-3.4055
X3.189Y-2.5
X3.248Y-2.9094
X3.248Y-3.0354
X3.3858Y-2.7008
X3.3937Y-2.7795
X3.4488Y-2.6614
X3.4567Y-2.7244
X3.4941Y-2.9232
X3.5039Y-2.5886
X3.5138Y-2.7756
X3.5512Y-2.8346
X3.5531Y-2.9134
X3.563Y-2.7461
X3.6516Y-2.7461
X3.6614Y-2.3917
X3.7106Y-2.7067
X3.7303Y-2.6575
X3.75Y-2.8642
X3.75Y-2.9232
X3.8091Y-2.8642
X3.8091Y-2.9232
X3.8681Y-2.6673
X3.8681Y-2.7264
X3.8681Y-2.8642
X3.8681Y-2.9232
X3.8976Y-2.4803
X3.9272Y-2.7264
X3.9272Y-2.7953
X3.9272Y-2.8642
X3.9272Y-2.9232
X4.3307Y-2.5984
X4.3307Y-2.6575
X4.3307Y-2.7165
X4.3898Y-2.5984
X4.3898Y-2.6575
X4.3898Y-2.7165
X4.439Y-3.4941
X4.4488Y-2.5984
X4.4488Y-2.6575
X4.4488Y-2.7165
X4.5079Y-2.5984
X4.5079Y-2.6575
X4.5079Y-2.7165
X4.5669Y-2.5984
X4.5669Y-2.6575
X4.5669Y-2.7165
X4.7539Y-3.4941
T2
X4.8031Y-2.4016
X4.8031Y-2.5016
X4.8031Y-2.6016
X4.8031Y-2.7016
X4.8031Y-2.9315
X4.8031Y-3.0315
T3
X2.7559Y-2.5098
X2.7559Y-2.6476
T0
M30
